<mxfile host="app.diagrams.net" agent="Mozilla/5.0 (Windows NT 10.0; Win64; x64) AppleWebKit/537.36 (KHTML, like Gecko) Chrome/136.0.0.0 Safari/537.36" version="26.2.14" pages="2">
  <diagram name="Page-1" id="m8aM6dtleFyoJC6IYVf6">
    <mxGraphModel dx="2634" dy="1811" grid="1" gridSize="10" guides="1" tooltips="1" connect="1" arrows="1" fold="1" page="0" pageScale="1" pageWidth="850" pageHeight="1100" math="0" shadow="0">
      <root>
        <mxCell id="0" />
        <mxCell id="1" parent="0" />
        <mxCell id="wPr815SkSwhtlgaT7PUA-1" value="Mahasiswa" style="swimlane;fontStyle=0;childLayout=stackLayout;horizontal=1;startSize=30;horizontalStack=0;resizeParent=1;resizeParentMax=0;resizeLast=0;collapsible=1;marginBottom=0;whiteSpace=wrap;html=1;" parent="1" vertex="1">
          <mxGeometry x="129" y="74" width="140" height="150" as="geometry">
            <mxRectangle x="129" y="74" width="95" height="30" as="alternateBounds" />
          </mxGeometry>
        </mxCell>
        <mxCell id="wPr815SkSwhtlgaT7PUA-2" value="id_npm" style="text;strokeColor=none;fillColor=none;align=left;verticalAlign=middle;spacingLeft=4;spacingRight=4;overflow=hidden;points=[[0,0.5],[1,0.5]];portConstraint=eastwest;rotatable=0;whiteSpace=wrap;html=1;" parent="wPr815SkSwhtlgaT7PUA-1" vertex="1">
          <mxGeometry y="30" width="140" height="30" as="geometry" />
        </mxCell>
        <mxCell id="wPr815SkSwhtlgaT7PUA-3" value="nama" style="text;strokeColor=none;fillColor=none;align=left;verticalAlign=middle;spacingLeft=4;spacingRight=4;overflow=hidden;points=[[0,0.5],[1,0.5]];portConstraint=eastwest;rotatable=0;whiteSpace=wrap;html=1;" parent="wPr815SkSwhtlgaT7PUA-1" vertex="1">
          <mxGeometry y="60" width="140" height="30" as="geometry" />
        </mxCell>
        <mxCell id="wPr815SkSwhtlgaT7PUA-4" value="jurusan" style="text;strokeColor=none;fillColor=none;align=left;verticalAlign=middle;spacingLeft=4;spacingRight=4;overflow=hidden;points=[[0,0.5],[1,0.5]];portConstraint=eastwest;rotatable=0;whiteSpace=wrap;html=1;" parent="wPr815SkSwhtlgaT7PUA-1" vertex="1">
          <mxGeometry y="90" width="140" height="30" as="geometry" />
        </mxCell>
        <mxCell id="wPr815SkSwhtlgaT7PUA-5" value="fakultas" style="text;strokeColor=none;fillColor=none;align=left;verticalAlign=middle;spacingLeft=4;spacingRight=4;overflow=hidden;points=[[0,0.5],[1,0.5]];portConstraint=eastwest;rotatable=0;whiteSpace=wrap;html=1;" parent="wPr815SkSwhtlgaT7PUA-1" vertex="1">
          <mxGeometry y="120" width="140" height="30" as="geometry" />
        </mxCell>
        <mxCell id="wPr815SkSwhtlgaT7PUA-6" value="Admin" style="swimlane;fontStyle=0;childLayout=stackLayout;horizontal=1;startSize=30;horizontalStack=0;resizeParent=1;resizeParentMax=0;resizeLast=0;collapsible=1;marginBottom=0;whiteSpace=wrap;html=1;" parent="1" vertex="1">
          <mxGeometry x="275" y="74" width="140" height="90" as="geometry">
            <mxRectangle x="275" y="74" width="95" height="30" as="alternateBounds" />
          </mxGeometry>
        </mxCell>
        <mxCell id="wPr815SkSwhtlgaT7PUA-7" value="userid" style="text;strokeColor=none;fillColor=none;align=left;verticalAlign=middle;spacingLeft=4;spacingRight=4;overflow=hidden;points=[[0,0.5],[1,0.5]];portConstraint=eastwest;rotatable=0;whiteSpace=wrap;html=1;" parent="wPr815SkSwhtlgaT7PUA-6" vertex="1">
          <mxGeometry y="30" width="140" height="30" as="geometry" />
        </mxCell>
        <mxCell id="wPr815SkSwhtlgaT7PUA-8" value="pass" style="text;strokeColor=none;fillColor=none;align=left;verticalAlign=middle;spacingLeft=4;spacingRight=4;overflow=hidden;points=[[0,0.5],[1,0.5]];portConstraint=eastwest;rotatable=0;whiteSpace=wrap;html=1;" parent="wPr815SkSwhtlgaT7PUA-6" vertex="1">
          <mxGeometry y="60" width="140" height="30" as="geometry" />
        </mxCell>
        <mxCell id="wPr815SkSwhtlgaT7PUA-11" value="KRS" style="swimlane;fontStyle=0;childLayout=stackLayout;horizontal=1;startSize=30;horizontalStack=0;resizeParent=1;resizeParentMax=0;resizeLast=0;collapsible=1;marginBottom=0;whiteSpace=wrap;html=1;" parent="1" vertex="1">
          <mxGeometry x="422" y="74" width="140" height="270" as="geometry">
            <mxRectangle x="422" y="74" width="95" height="30" as="alternateBounds" />
          </mxGeometry>
        </mxCell>
        <mxCell id="wPr815SkSwhtlgaT7PUA-12" value="id_npm" style="text;strokeColor=none;fillColor=none;align=left;verticalAlign=middle;spacingLeft=4;spacingRight=4;overflow=hidden;points=[[0,0.5],[1,0.5]];portConstraint=eastwest;rotatable=0;whiteSpace=wrap;html=1;" parent="wPr815SkSwhtlgaT7PUA-11" vertex="1">
          <mxGeometry y="30" width="140" height="30" as="geometry" />
        </mxCell>
        <mxCell id="wPr815SkSwhtlgaT7PUA-13" value="kelas" style="text;strokeColor=none;fillColor=none;align=left;verticalAlign=middle;spacingLeft=4;spacingRight=4;overflow=hidden;points=[[0,0.5],[1,0.5]];portConstraint=eastwest;rotatable=0;whiteSpace=wrap;html=1;" parent="wPr815SkSwhtlgaT7PUA-11" vertex="1">
          <mxGeometry y="60" width="140" height="30" as="geometry" />
        </mxCell>
        <mxCell id="wPr815SkSwhtlgaT7PUA-15" value="tahunajaran" style="text;strokeColor=none;fillColor=none;align=left;verticalAlign=middle;spacingLeft=4;spacingRight=4;overflow=hidden;points=[[0,0.5],[1,0.5]];portConstraint=eastwest;rotatable=0;whiteSpace=wrap;html=1;" parent="wPr815SkSwhtlgaT7PUA-11" vertex="1">
          <mxGeometry y="90" width="140" height="30" as="geometry" />
        </mxCell>
        <mxCell id="wPr815SkSwhtlgaT7PUA-16" value="jumlahsemester" style="text;strokeColor=none;fillColor=none;align=left;verticalAlign=middle;spacingLeft=4;spacingRight=4;overflow=hidden;points=[[0,0.5],[1,0.5]];portConstraint=eastwest;rotatable=0;whiteSpace=wrap;html=1;" parent="wPr815SkSwhtlgaT7PUA-11" vertex="1">
          <mxGeometry y="120" width="140" height="30" as="geometry" />
        </mxCell>
        <mxCell id="wPr815SkSwhtlgaT7PUA-17" value="kodemk" style="text;strokeColor=none;fillColor=none;align=left;verticalAlign=middle;spacingLeft=4;spacingRight=4;overflow=hidden;points=[[0,0.5],[1,0.5]];portConstraint=eastwest;rotatable=0;whiteSpace=wrap;html=1;" parent="wPr815SkSwhtlgaT7PUA-11" vertex="1">
          <mxGeometry y="150" width="140" height="30" as="geometry" />
        </mxCell>
        <mxCell id="wPr815SkSwhtlgaT7PUA-18" value="nama_mk" style="text;strokeColor=none;fillColor=none;align=left;verticalAlign=middle;spacingLeft=4;spacingRight=4;overflow=hidden;points=[[0,0.5],[1,0.5]];portConstraint=eastwest;rotatable=0;whiteSpace=wrap;html=1;" parent="wPr815SkSwhtlgaT7PUA-11" vertex="1">
          <mxGeometry y="180" width="140" height="30" as="geometry" />
        </mxCell>
        <mxCell id="wPr815SkSwhtlgaT7PUA-19" value="jenis_mk" style="text;strokeColor=none;fillColor=none;align=left;verticalAlign=middle;spacingLeft=4;spacingRight=4;overflow=hidden;points=[[0,0.5],[1,0.5]];portConstraint=eastwest;rotatable=0;whiteSpace=wrap;html=1;" parent="wPr815SkSwhtlgaT7PUA-11" vertex="1">
          <mxGeometry y="210" width="140" height="30" as="geometry" />
        </mxCell>
        <mxCell id="wPr815SkSwhtlgaT7PUA-20" value="jumlah_sks" style="text;strokeColor=none;fillColor=none;align=left;verticalAlign=middle;spacingLeft=4;spacingRight=4;overflow=hidden;points=[[0,0.5],[1,0.5]];portConstraint=eastwest;rotatable=0;whiteSpace=wrap;html=1;" parent="wPr815SkSwhtlgaT7PUA-11" vertex="1">
          <mxGeometry y="240" width="140" height="30" as="geometry" />
        </mxCell>
        <mxCell id="wPr815SkSwhtlgaT7PUA-29" style="edgeStyle=none;curved=1;rounded=0;orthogonalLoop=1;jettySize=auto;html=1;exitX=0;exitY=0.25;exitDx=0;exitDy=0;entryX=1;entryY=0;entryDx=0;entryDy=0;fontSize=12;startSize=8;endSize=8;" parent="1" source="wPr815SkSwhtlgaT7PUA-22" target="wPr815SkSwhtlgaT7PUA-24" edge="1">
          <mxGeometry relative="1" as="geometry" />
        </mxCell>
        <mxCell id="wPr815SkSwhtlgaT7PUA-22" value="Admin" style="rounded=0;whiteSpace=wrap;html=1;" parent="1" vertex="1">
          <mxGeometry x="678" y="660" width="120" height="60" as="geometry" />
        </mxCell>
        <mxCell id="wPr815SkSwhtlgaT7PUA-30" style="edgeStyle=none;curved=1;rounded=0;orthogonalLoop=1;jettySize=auto;html=1;exitX=1;exitY=0.75;exitDx=0;exitDy=0;entryX=0;entryY=1;entryDx=0;entryDy=0;fontSize=12;startSize=8;endSize=8;" parent="1" source="wPr815SkSwhtlgaT7PUA-23" target="wPr815SkSwhtlgaT7PUA-24" edge="1">
          <mxGeometry relative="1" as="geometry" />
        </mxCell>
        <mxCell id="wPr815SkSwhtlgaT7PUA-23" value="Mahasiswa" style="rounded=0;whiteSpace=wrap;html=1;" parent="1" vertex="1">
          <mxGeometry x="25" y="660" width="120" height="60" as="geometry" />
        </mxCell>
        <mxCell id="wPr815SkSwhtlgaT7PUA-28" style="edgeStyle=none;curved=1;rounded=0;orthogonalLoop=1;jettySize=auto;html=1;exitX=1;exitY=1;exitDx=0;exitDy=0;entryX=0;entryY=0.75;entryDx=0;entryDy=0;fontSize=12;startSize=8;endSize=8;" parent="1" source="wPr815SkSwhtlgaT7PUA-24" target="wPr815SkSwhtlgaT7PUA-22" edge="1">
          <mxGeometry relative="1" as="geometry" />
        </mxCell>
        <mxCell id="wPr815SkSwhtlgaT7PUA-31" style="edgeStyle=none;curved=1;rounded=0;orthogonalLoop=1;jettySize=auto;html=1;exitX=0;exitY=0;exitDx=0;exitDy=0;entryX=1;entryY=0.25;entryDx=0;entryDy=0;fontSize=12;startSize=8;endSize=8;" parent="1" source="wPr815SkSwhtlgaT7PUA-24" target="wPr815SkSwhtlgaT7PUA-23" edge="1">
          <mxGeometry relative="1" as="geometry" />
        </mxCell>
        <mxCell id="wPr815SkSwhtlgaT7PUA-24" value="Sistem Informasi&amp;nbsp;&lt;div&gt;KRS&lt;/div&gt;" style="ellipse;whiteSpace=wrap;html=1;aspect=fixed;" parent="1" vertex="1">
          <mxGeometry x="371.5" y="650" width="80" height="80" as="geometry" />
        </mxCell>
        <mxCell id="wPr815SkSwhtlgaT7PUA-26" value="Formulir Biodata mhs" style="text;html=1;align=center;verticalAlign=middle;resizable=0;points=[];autosize=1;strokeColor=none;fillColor=none;fontSize=16;" parent="1" vertex="1">
          <mxGeometry x="171" y="736" width="170" height="31" as="geometry" />
        </mxCell>
        <mxCell id="wPr815SkSwhtlgaT7PUA-32" value="Informasi Biodata mhs" style="text;html=1;align=center;verticalAlign=middle;resizable=0;points=[];autosize=1;strokeColor=none;fillColor=none;fontSize=16;" parent="1" vertex="1">
          <mxGeometry x="480" y="738" width="177" height="31" as="geometry" />
        </mxCell>
        <mxCell id="wPr815SkSwhtlgaT7PUA-33" value="Data KRS mhs" style="text;html=1;align=center;verticalAlign=middle;resizable=0;points=[];autosize=1;strokeColor=none;fillColor=none;fontSize=16;" parent="1" vertex="1">
          <mxGeometry x="506" y="604" width="124" height="31" as="geometry" />
        </mxCell>
        <mxCell id="wPr815SkSwhtlgaT7PUA-34" value="Mencetak KRS mhs" style="text;html=1;align=center;verticalAlign=middle;resizable=0;points=[];autosize=1;strokeColor=none;fillColor=none;fontSize=16;" parent="1" vertex="1">
          <mxGeometry x="176.5" y="604" width="159" height="31" as="geometry" />
        </mxCell>
        <mxCell id="wPr815SkSwhtlgaT7PUA-35" value="&lt;b&gt;CONTEXT DIAGRAM ( CD )&lt;/b&gt;" style="text;html=1;align=center;verticalAlign=middle;whiteSpace=wrap;rounded=0;fontSize=19;" parent="1" vertex="1">
          <mxGeometry x="264.75" y="490" width="284" height="95" as="geometry" />
        </mxCell>
        <mxCell id="wPr815SkSwhtlgaT7PUA-36" value="&lt;b&gt;Data Flow Diagram&lt;/b&gt;" style="text;strokeColor=none;fillColor=none;html=1;align=center;verticalAlign=middle;whiteSpace=wrap;rounded=0;fontSize=28;" parent="1" vertex="1">
          <mxGeometry x="20" y="1160" width="307.5" height="30" as="geometry" />
        </mxCell>
        <mxCell id="mlYaYbqaul2ydigR0Ifn-11" style="edgeStyle=none;curved=0;rounded=1;orthogonalLoop=1;jettySize=auto;html=1;fontSize=12;startSize=8;endSize=8;entryX=0.5;entryY=0;entryDx=0;entryDy=0;" parent="1" source="mlYaYbqaul2ydigR0Ifn-1" target="mlYaYbqaul2ydigR0Ifn-2" edge="1">
          <mxGeometry relative="1" as="geometry">
            <mxPoint x="611.5" y="1188.9999999999998" as="targetPoint" />
            <Array as="points">
              <mxPoint x="611.5" y="1190" />
            </Array>
          </mxGeometry>
        </mxCell>
        <mxCell id="mlYaYbqaul2ydigR0Ifn-33" style="edgeStyle=none;curved=0;rounded=1;orthogonalLoop=1;jettySize=auto;html=1;exitX=0.25;exitY=1;exitDx=0;exitDy=0;entryX=0;entryY=0.5;entryDx=0;entryDy=0;fontSize=12;startSize=8;endSize=8;" parent="1" source="mlYaYbqaul2ydigR0Ifn-1" target="mlYaYbqaul2ydigR0Ifn-27" edge="1">
          <mxGeometry relative="1" as="geometry">
            <Array as="points">
              <mxPoint x="441.5" y="1690" />
            </Array>
          </mxGeometry>
        </mxCell>
        <mxCell id="mlYaYbqaul2ydigR0Ifn-39" style="edgeStyle=orthogonalEdgeStyle;rounded=0;orthogonalLoop=1;jettySize=auto;html=1;exitX=0.25;exitY=0;exitDx=0;exitDy=0;entryX=1;entryY=1;entryDx=0;entryDy=0;fontSize=12;startSize=8;endSize=8;" parent="1" source="mlYaYbqaul2ydigR0Ifn-1" target="mlYaYbqaul2ydigR0Ifn-35" edge="1">
          <mxGeometry relative="1" as="geometry">
            <Array as="points">
              <mxPoint x="441.5" y="1080" />
              <mxPoint x="871.5" y="1080" />
              <mxPoint x="871.5" y="1898" />
            </Array>
          </mxGeometry>
        </mxCell>
        <mxCell id="mlYaYbqaul2ydigR0Ifn-1" value="Admin" style="rounded=0;whiteSpace=wrap;html=1;" parent="1" vertex="1">
          <mxGeometry x="411.5" y="1160" width="120" height="60" as="geometry" />
        </mxCell>
        <mxCell id="mlYaYbqaul2ydigR0Ifn-10" style="edgeStyle=none;curved=1;rounded=0;orthogonalLoop=1;jettySize=auto;html=1;fontSize=12;startSize=8;endSize=8;entryX=1;entryY=0.333;entryDx=0;entryDy=0;entryPerimeter=0;" parent="1" source="mlYaYbqaul2ydigR0Ifn-2" target="mlYaYbqaul2ydigR0Ifn-6" edge="1">
          <mxGeometry relative="1" as="geometry">
            <mxPoint x="351.5" y="1360" as="targetPoint" />
          </mxGeometry>
        </mxCell>
        <mxCell id="mlYaYbqaul2ydigR0Ifn-2" value="" style="ellipse;whiteSpace=wrap;html=1;aspect=fixed;" parent="1" vertex="1">
          <mxGeometry x="573.5" y="1320" width="80" height="80" as="geometry" />
        </mxCell>
        <mxCell id="mlYaYbqaul2ydigR0Ifn-6" value="Admin" style="rounded=0;whiteSpace=wrap;html=1;" parent="1" vertex="1">
          <mxGeometry y="1340" width="120" height="60" as="geometry" />
        </mxCell>
        <mxCell id="mlYaYbqaul2ydigR0Ifn-9" style="edgeStyle=none;curved=1;rounded=0;orthogonalLoop=1;jettySize=auto;html=1;exitX=1;exitY=0.75;exitDx=0;exitDy=0;entryX=0.099;entryY=0.805;entryDx=0;entryDy=0;entryPerimeter=0;fontSize=12;startSize=8;endSize=8;" parent="1" source="mlYaYbqaul2ydigR0Ifn-6" target="mlYaYbqaul2ydigR0Ifn-2" edge="1">
          <mxGeometry relative="1" as="geometry" />
        </mxCell>
        <mxCell id="mlYaYbqaul2ydigR0Ifn-12" value="Login User &amp;amp; pass Admin" style="text;html=1;align=center;verticalAlign=middle;whiteSpace=wrap;rounded=0;" parent="1" vertex="1">
          <mxGeometry x="591.5" y="1220" width="196.5" height="30" as="geometry" />
        </mxCell>
        <mxCell id="mlYaYbqaul2ydigR0Ifn-13" value="1. Atur Admin" style="text;html=1;align=center;verticalAlign=middle;whiteSpace=wrap;rounded=0;" parent="1" vertex="1">
          <mxGeometry x="583.5" y="1345" width="60" height="30" as="geometry" />
        </mxCell>
        <mxCell id="mlYaYbqaul2ydigR0Ifn-14" value="Pengecekan Akun Admin" style="text;html=1;align=center;verticalAlign=middle;whiteSpace=wrap;rounded=0;" parent="1" vertex="1">
          <mxGeometry x="211" y="1330" width="148.5" height="30" as="geometry" />
        </mxCell>
        <mxCell id="mlYaYbqaul2ydigR0Ifn-15" value="Data Admin dan Login Akses" style="text;html=1;align=center;verticalAlign=middle;whiteSpace=wrap;rounded=0;" parent="1" vertex="1">
          <mxGeometry x="199" y="1390" width="172.5" height="30" as="geometry" />
        </mxCell>
        <mxCell id="mlYaYbqaul2ydigR0Ifn-24" style="edgeStyle=none;curved=0;rounded=1;orthogonalLoop=1;jettySize=auto;html=1;exitX=0.5;exitY=0;exitDx=0;exitDy=0;fontSize=12;startSize=8;endSize=8;entryX=0.875;entryY=0.95;entryDx=0;entryDy=0;entryPerimeter=0;" parent="1" source="mlYaYbqaul2ydigR0Ifn-16" target="mlYaYbqaul2ydigR0Ifn-1" edge="1">
          <mxGeometry relative="1" as="geometry">
            <mxPoint x="531.5" y="1502" as="targetPoint" />
            <Array as="points">
              <mxPoint x="516.5" y="1490" />
            </Array>
          </mxGeometry>
        </mxCell>
        <mxCell id="srYLTzpqTTpHwPgimwyO-12" style="edgeStyle=orthogonalEdgeStyle;rounded=0;orthogonalLoop=1;jettySize=auto;html=1;exitX=1;exitY=1;exitDx=0;exitDy=0;entryX=0.853;entryY=0.983;entryDx=0;entryDy=0;entryPerimeter=0;" parent="1" source="mlYaYbqaul2ydigR0Ifn-16" target="srYLTzpqTTpHwPgimwyO-4" edge="1">
          <mxGeometry relative="1" as="geometry">
            <mxPoint x="1140" y="1560" as="targetPoint" />
          </mxGeometry>
        </mxCell>
        <mxCell id="mlYaYbqaul2ydigR0Ifn-16" value="" style="ellipse;whiteSpace=wrap;html=1;aspect=fixed;" parent="1" vertex="1">
          <mxGeometry x="573.5" y="1490" width="80" height="80" as="geometry" />
        </mxCell>
        <mxCell id="mlYaYbqaul2ydigR0Ifn-17" value="2. Atur Mahasiswa" style="text;html=1;align=center;verticalAlign=middle;whiteSpace=wrap;rounded=0;" parent="1" vertex="1">
          <mxGeometry x="581.5" y="1515" width="60" height="30" as="geometry" />
        </mxCell>
        <mxCell id="mlYaYbqaul2ydigR0Ifn-18" value="Mahasiswa" style="rounded=0;whiteSpace=wrap;html=1;" parent="1" vertex="1">
          <mxGeometry y="1510" width="120" height="60" as="geometry" />
        </mxCell>
        <mxCell id="mlYaYbqaul2ydigR0Ifn-20" style="edgeStyle=none;curved=1;rounded=0;orthogonalLoop=1;jettySize=auto;html=1;entryX=1;entryY=0.333;entryDx=0;entryDy=0;entryPerimeter=0;fontSize=12;startSize=8;endSize=8;" parent="1" source="mlYaYbqaul2ydigR0Ifn-16" target="mlYaYbqaul2ydigR0Ifn-18" edge="1">
          <mxGeometry relative="1" as="geometry" />
        </mxCell>
        <mxCell id="mlYaYbqaul2ydigR0Ifn-21" style="edgeStyle=none;curved=1;rounded=0;orthogonalLoop=1;jettySize=auto;html=1;exitX=1;exitY=0.75;exitDx=0;exitDy=0;fontSize=12;startSize=8;endSize=8;entryX=0.085;entryY=0.81;entryDx=0;entryDy=0;entryPerimeter=0;" parent="1" source="mlYaYbqaul2ydigR0Ifn-18" target="mlYaYbqaul2ydigR0Ifn-16" edge="1">
          <mxGeometry relative="1" as="geometry" />
        </mxCell>
        <mxCell id="mlYaYbqaul2ydigR0Ifn-22" value="Pengecekan Biodata" style="text;html=1;align=center;verticalAlign=middle;whiteSpace=wrap;rounded=0;" parent="1" vertex="1">
          <mxGeometry x="211" y="1485" width="148.5" height="30" as="geometry" />
        </mxCell>
        <mxCell id="mlYaYbqaul2ydigR0Ifn-23" value="Informasi biodata mhs" style="text;html=1;align=center;verticalAlign=middle;whiteSpace=wrap;rounded=0;" parent="1" vertex="1">
          <mxGeometry x="205" y="1570" width="148.5" height="30" as="geometry" />
        </mxCell>
        <mxCell id="mlYaYbqaul2ydigR0Ifn-26" style="edgeStyle=none;curved=0;rounded=1;orthogonalLoop=1;jettySize=auto;html=1;entryX=0.079;entryY=0.242;entryDx=0;entryDy=0;entryPerimeter=0;fontSize=12;startSize=8;endSize=8;" parent="1" source="mlYaYbqaul2ydigR0Ifn-1" target="mlYaYbqaul2ydigR0Ifn-16" edge="1">
          <mxGeometry relative="1" as="geometry">
            <Array as="points">
              <mxPoint x="471.5" y="1509" />
            </Array>
          </mxGeometry>
        </mxCell>
        <mxCell id="mlYaYbqaul2ydigR0Ifn-30" style="edgeStyle=none;curved=1;rounded=0;orthogonalLoop=1;jettySize=auto;html=1;exitX=0;exitY=1;exitDx=0;exitDy=0;entryX=1;entryY=0.75;entryDx=0;entryDy=0;fontSize=12;startSize=8;endSize=8;" parent="1" source="mlYaYbqaul2ydigR0Ifn-27" target="mlYaYbqaul2ydigR0Ifn-29" edge="1">
          <mxGeometry relative="1" as="geometry" />
        </mxCell>
        <mxCell id="srYLTzpqTTpHwPgimwyO-13" style="edgeStyle=orthogonalEdgeStyle;rounded=0;orthogonalLoop=1;jettySize=auto;html=1;exitX=1;exitY=1;exitDx=0;exitDy=0;entryX=0.656;entryY=0.971;entryDx=0;entryDy=0;entryPerimeter=0;" parent="1" source="mlYaYbqaul2ydigR0Ifn-27" target="srYLTzpqTTpHwPgimwyO-4" edge="1">
          <mxGeometry relative="1" as="geometry">
            <mxPoint x="1100" y="1717.75" as="targetPoint" />
          </mxGeometry>
        </mxCell>
        <mxCell id="mlYaYbqaul2ydigR0Ifn-27" value="" style="ellipse;whiteSpace=wrap;html=1;aspect=fixed;" parent="1" vertex="1">
          <mxGeometry x="573.5" y="1650" width="80" height="80" as="geometry" />
        </mxCell>
        <mxCell id="mlYaYbqaul2ydigR0Ifn-28" value="3. Atur Matkul" style="text;html=1;align=center;verticalAlign=middle;whiteSpace=wrap;rounded=0;" parent="1" vertex="1">
          <mxGeometry x="583.5" y="1675" width="60" height="30" as="geometry" />
        </mxCell>
        <mxCell id="mlYaYbqaul2ydigR0Ifn-29" value="Mata Kuliah" style="rounded=0;whiteSpace=wrap;html=1;" parent="1" vertex="1">
          <mxGeometry y="1670" width="120" height="60" as="geometry" />
        </mxCell>
        <mxCell id="mlYaYbqaul2ydigR0Ifn-31" value="Informasi matkul yang tersedia" style="text;html=1;align=center;verticalAlign=middle;whiteSpace=wrap;rounded=0;" parent="1" vertex="1">
          <mxGeometry x="205" y="1730" width="148.5" height="30" as="geometry" />
        </mxCell>
        <mxCell id="mlYaYbqaul2ydigR0Ifn-32" value="Informasi Biodata Mahasiswa" style="text;html=1;align=center;verticalAlign=middle;whiteSpace=wrap;rounded=0;" parent="1" vertex="1">
          <mxGeometry x="513.25" y="1430" width="196.5" height="30" as="geometry" />
        </mxCell>
        <mxCell id="mlYaYbqaul2ydigR0Ifn-34" value="Pengecekan Matkul yang tersedia" style="text;html=1;align=center;verticalAlign=middle;whiteSpace=wrap;rounded=0;" parent="1" vertex="1">
          <mxGeometry x="445" y="1600" width="196.5" height="30" as="geometry" />
        </mxCell>
        <mxCell id="mlYaYbqaul2ydigR0Ifn-38" style="edgeStyle=orthogonalEdgeStyle;rounded=0;orthogonalLoop=1;jettySize=auto;html=1;exitX=1;exitY=0;exitDx=0;exitDy=0;entryX=0.75;entryY=0;entryDx=0;entryDy=0;fontSize=12;startSize=8;endSize=8;" parent="1" source="mlYaYbqaul2ydigR0Ifn-35" target="mlYaYbqaul2ydigR0Ifn-1" edge="1">
          <mxGeometry relative="1" as="geometry">
            <Array as="points">
              <mxPoint x="811.5" y="1842" />
              <mxPoint x="811.5" y="1120" />
              <mxPoint x="501.5" y="1120" />
            </Array>
          </mxGeometry>
        </mxCell>
        <mxCell id="mlYaYbqaul2ydigR0Ifn-43" style="edgeStyle=none;curved=0;rounded=1;orthogonalLoop=1;jettySize=auto;html=1;entryX=1;entryY=0.5;entryDx=0;entryDy=0;fontSize=12;startSize=8;endSize=8;exitX=0.593;exitY=0.997;exitDx=0;exitDy=0;exitPerimeter=0;" parent="1" source="mlYaYbqaul2ydigR0Ifn-35" target="mlYaYbqaul2ydigR0Ifn-42" edge="1">
          <mxGeometry relative="1" as="geometry">
            <mxPoint x="621.5" y="1911" as="sourcePoint" />
            <Array as="points">
              <mxPoint x="620" y="2070" />
            </Array>
          </mxGeometry>
        </mxCell>
        <mxCell id="srYLTzpqTTpHwPgimwyO-5" style="edgeStyle=orthogonalEdgeStyle;rounded=0;orthogonalLoop=1;jettySize=auto;html=1;exitX=0;exitY=1;exitDx=0;exitDy=0;entryX=0;entryY=0.167;entryDx=0;entryDy=0;entryPerimeter=0;" parent="1" target="srYLTzpqTTpHwPgimwyO-4" edge="1">
          <mxGeometry relative="1" as="geometry">
            <mxPoint x="-281.72" y="1090" as="targetPoint" />
            <mxPoint x="583.4957287525381" y="1898.2842712474617" as="sourcePoint" />
            <Array as="points">
              <mxPoint x="-110" y="1898" />
              <mxPoint x="-110" y="980" />
            </Array>
          </mxGeometry>
        </mxCell>
        <mxCell id="mlYaYbqaul2ydigR0Ifn-35" value="" style="ellipse;whiteSpace=wrap;html=1;aspect=fixed;" parent="1" vertex="1">
          <mxGeometry x="573.5" y="1830" width="80" height="80" as="geometry" />
        </mxCell>
        <mxCell id="mlYaYbqaul2ydigR0Ifn-36" value="4. Cetak KRS" style="text;html=1;align=center;verticalAlign=middle;whiteSpace=wrap;rounded=0;" parent="1" vertex="1">
          <mxGeometry x="583.5" y="1855" width="60" height="30" as="geometry" />
        </mxCell>
        <mxCell id="mlYaYbqaul2ydigR0Ifn-40" value="Permintan Cetak diterima" style="text;html=1;align=center;verticalAlign=middle;whiteSpace=wrap;rounded=0;" parent="1" vertex="1">
          <mxGeometry x="675.25" y="1920" width="148.5" height="30" as="geometry" />
        </mxCell>
        <mxCell id="mlYaYbqaul2ydigR0Ifn-41" value="Permintan Cetak KRS" style="text;html=1;align=center;verticalAlign=middle;whiteSpace=wrap;rounded=0;" parent="1" vertex="1">
          <mxGeometry x="653.5" y="1800" width="148.5" height="30" as="geometry" />
        </mxCell>
        <mxCell id="mlYaYbqaul2ydigR0Ifn-42" value="KRS" style="rounded=0;whiteSpace=wrap;html=1;" parent="1" vertex="1">
          <mxGeometry x="241.5" y="2040" width="120" height="60" as="geometry" />
        </mxCell>
        <mxCell id="mlYaYbqaul2ydigR0Ifn-44" value="Arsip KRS" style="text;html=1;align=center;verticalAlign=middle;whiteSpace=wrap;rounded=0;" parent="1" vertex="1">
          <mxGeometry x="413.5" y="2030" width="148.5" height="30" as="geometry" />
        </mxCell>
        <mxCell id="srYLTzpqTTpHwPgimwyO-6" style="edgeStyle=orthogonalEdgeStyle;rounded=0;orthogonalLoop=1;jettySize=auto;html=1;exitX=0;exitY=0.75;exitDx=0;exitDy=0;entryX=0;entryY=0;entryDx=0;entryDy=0;" parent="1" source="srYLTzpqTTpHwPgimwyO-4" target="mlYaYbqaul2ydigR0Ifn-35" edge="1">
          <mxGeometry relative="1" as="geometry">
            <mxPoint x="-290" y="1860" as="targetPoint" />
            <Array as="points">
              <mxPoint x="-60" y="1015" />
              <mxPoint x="-60" y="1842" />
            </Array>
          </mxGeometry>
        </mxCell>
        <mxCell id="srYLTzpqTTpHwPgimwyO-15" style="edgeStyle=orthogonalEdgeStyle;rounded=0;orthogonalLoop=1;jettySize=auto;html=1;exitX=0.5;exitY=1;exitDx=0;exitDy=0;entryX=1;entryY=0.5;entryDx=0;entryDy=0;" parent="1" source="srYLTzpqTTpHwPgimwyO-4" target="mlYaYbqaul2ydigR0Ifn-16" edge="1">
          <mxGeometry relative="1" as="geometry">
            <mxPoint x="1080" y="1520" as="targetPoint" />
            <Array as="points">
              <mxPoint x="1070" y="1030" />
              <mxPoint x="1070" y="1530" />
            </Array>
          </mxGeometry>
        </mxCell>
        <mxCell id="srYLTzpqTTpHwPgimwyO-16" style="edgeStyle=orthogonalEdgeStyle;rounded=0;orthogonalLoop=1;jettySize=auto;html=1;exitX=0.25;exitY=1;exitDx=0;exitDy=0;entryX=1;entryY=0.5;entryDx=0;entryDy=0;" parent="1" source="srYLTzpqTTpHwPgimwyO-4" target="mlYaYbqaul2ydigR0Ifn-27" edge="1">
          <mxGeometry relative="1" as="geometry">
            <mxPoint x="1040.25" y="1681.25" as="targetPoint" />
            <Array as="points">
              <mxPoint x="1030" y="1030" />
              <mxPoint x="1030" y="1690" />
            </Array>
          </mxGeometry>
        </mxCell>
        <mxCell id="srYLTzpqTTpHwPgimwyO-4" value="Mahasiswa" style="rounded=0;whiteSpace=wrap;html=1;" parent="1" vertex="1">
          <mxGeometry x="1000" y="970" width="160" height="60" as="geometry" />
        </mxCell>
        <mxCell id="srYLTzpqTTpHwPgimwyO-7" value="Meminta Cetak KRS" style="text;html=1;align=center;verticalAlign=middle;whiteSpace=wrap;rounded=0;" parent="1" vertex="1">
          <mxGeometry x="361.5" y="1800" width="148.5" height="30" as="geometry" />
        </mxCell>
        <mxCell id="srYLTzpqTTpHwPgimwyO-8" value="Dokumen KRS" style="text;html=1;align=center;verticalAlign=middle;whiteSpace=wrap;rounded=0;" parent="1" vertex="1">
          <mxGeometry x="364.75" y="1920" width="148.5" height="30" as="geometry" />
        </mxCell>
        <mxCell id="srYLTzpqTTpHwPgimwyO-17" value="Informasi matakuliah" style="text;html=1;align=center;verticalAlign=middle;whiteSpace=wrap;rounded=0;" parent="1" vertex="1">
          <mxGeometry x="880" y="1730" width="196.5" height="30" as="geometry" />
        </mxCell>
        <mxCell id="srYLTzpqTTpHwPgimwyO-18" value="mahasiswa mendaftar mata kuliah" style="text;html=1;align=center;verticalAlign=middle;whiteSpace=wrap;rounded=0;" parent="1" vertex="1">
          <mxGeometry x="900" y="1650" width="100" height="30" as="geometry" />
        </mxCell>
        <mxCell id="srYLTzpqTTpHwPgimwyO-19" value="Biodata mahasiwa" style="text;html=1;align=center;verticalAlign=middle;whiteSpace=wrap;rounded=0;" parent="1" vertex="1">
          <mxGeometry x="900" y="1480" width="100" height="30" as="geometry" />
        </mxCell>
        <mxCell id="srYLTzpqTTpHwPgimwyO-20" value="Informasi biodata mahasiswa" style="text;html=1;align=center;verticalAlign=middle;whiteSpace=wrap;rounded=0;" parent="1" vertex="1">
          <mxGeometry x="900" y="1570" width="100" height="30" as="geometry" />
        </mxCell>
        <mxCell id="YIY799zPQsZaPuYCzbY4-1" value="Anggota" style="swimlane;fontStyle=0;childLayout=stackLayout;horizontal=1;startSize=30;horizontalStack=0;resizeParent=1;resizeParentMax=0;resizeLast=0;collapsible=1;marginBottom=0;whiteSpace=wrap;html=1;" parent="1" vertex="1">
          <mxGeometry x="460" y="2890" width="140" height="180" as="geometry" />
        </mxCell>
        <mxCell id="YIY799zPQsZaPuYCzbY4-2" value="id_anggota" style="text;strokeColor=none;fillColor=none;align=left;verticalAlign=middle;spacingLeft=4;spacingRight=4;overflow=hidden;points=[[0,0.5],[1,0.5]];portConstraint=eastwest;rotatable=0;whiteSpace=wrap;html=1;" parent="YIY799zPQsZaPuYCzbY4-1" vertex="1">
          <mxGeometry y="30" width="140" height="30" as="geometry" />
        </mxCell>
        <mxCell id="YIY799zPQsZaPuYCzbY4-3" value="nama" style="text;strokeColor=none;fillColor=none;align=left;verticalAlign=middle;spacingLeft=4;spacingRight=4;overflow=hidden;points=[[0,0.5],[1,0.5]];portConstraint=eastwest;rotatable=0;whiteSpace=wrap;html=1;" parent="YIY799zPQsZaPuYCzbY4-1" vertex="1">
          <mxGeometry y="60" width="140" height="30" as="geometry" />
        </mxCell>
        <mxCell id="YIY799zPQsZaPuYCzbY4-4" value="alamat" style="text;strokeColor=none;fillColor=none;align=left;verticalAlign=middle;spacingLeft=4;spacingRight=4;overflow=hidden;points=[[0,0.5],[1,0.5]];portConstraint=eastwest;rotatable=0;whiteSpace=wrap;html=1;" parent="YIY799zPQsZaPuYCzbY4-1" vertex="1">
          <mxGeometry y="90" width="140" height="30" as="geometry" />
        </mxCell>
        <mxCell id="YIY799zPQsZaPuYCzbY4-5" value="email" style="text;strokeColor=none;fillColor=none;align=left;verticalAlign=middle;spacingLeft=4;spacingRight=4;overflow=hidden;points=[[0,0.5],[1,0.5]];portConstraint=eastwest;rotatable=0;whiteSpace=wrap;html=1;" parent="YIY799zPQsZaPuYCzbY4-1" vertex="1">
          <mxGeometry y="120" width="140" height="30" as="geometry" />
        </mxCell>
        <mxCell id="YIY799zPQsZaPuYCzbY4-6" value="no_hp" style="text;strokeColor=none;fillColor=none;align=left;verticalAlign=middle;spacingLeft=4;spacingRight=4;overflow=hidden;points=[[0,0.5],[1,0.5]];portConstraint=eastwest;rotatable=0;whiteSpace=wrap;html=1;" parent="YIY799zPQsZaPuYCzbY4-1" vertex="1">
          <mxGeometry y="150" width="140" height="30" as="geometry" />
        </mxCell>
        <mxCell id="YIY799zPQsZaPuYCzbY4-7" value="Peminjaman" style="swimlane;fontStyle=0;childLayout=stackLayout;horizontal=1;startSize=30;horizontalStack=0;resizeParent=1;resizeParentMax=0;resizeLast=0;collapsible=1;marginBottom=0;whiteSpace=wrap;html=1;" parent="1" vertex="1">
          <mxGeometry x="619.75" y="2720" width="140" height="240" as="geometry" />
        </mxCell>
        <mxCell id="YIY799zPQsZaPuYCzbY4-8" value="id_peminjaman" style="text;strokeColor=none;fillColor=none;align=left;verticalAlign=middle;spacingLeft=4;spacingRight=4;overflow=hidden;points=[[0,0.5],[1,0.5]];portConstraint=eastwest;rotatable=0;whiteSpace=wrap;html=1;" parent="YIY799zPQsZaPuYCzbY4-7" vertex="1">
          <mxGeometry y="30" width="140" height="30" as="geometry" />
        </mxCell>
        <mxCell id="YIY799zPQsZaPuYCzbY4-9" value="id_anggota" style="text;strokeColor=none;fillColor=none;align=left;verticalAlign=middle;spacingLeft=4;spacingRight=4;overflow=hidden;points=[[0,0.5],[1,0.5]];portConstraint=eastwest;rotatable=0;whiteSpace=wrap;html=1;" parent="YIY799zPQsZaPuYCzbY4-7" vertex="1">
          <mxGeometry y="60" width="140" height="30" as="geometry" />
        </mxCell>
        <mxCell id="YIY799zPQsZaPuYCzbY4-10" value="id_buku" style="text;strokeColor=none;fillColor=none;align=left;verticalAlign=middle;spacingLeft=4;spacingRight=4;overflow=hidden;points=[[0,0.5],[1,0.5]];portConstraint=eastwest;rotatable=0;whiteSpace=wrap;html=1;" parent="YIY799zPQsZaPuYCzbY4-7" vertex="1">
          <mxGeometry y="90" width="140" height="30" as="geometry" />
        </mxCell>
        <mxCell id="YIY799zPQsZaPuYCzbY4-11" value="tanggal_pinjam" style="text;strokeColor=none;fillColor=none;align=left;verticalAlign=middle;spacingLeft=4;spacingRight=4;overflow=hidden;points=[[0,0.5],[1,0.5]];portConstraint=eastwest;rotatable=0;whiteSpace=wrap;html=1;" parent="YIY799zPQsZaPuYCzbY4-7" vertex="1">
          <mxGeometry y="120" width="140" height="30" as="geometry" />
        </mxCell>
        <mxCell id="YIY799zPQsZaPuYCzbY4-12" value="tanggal_kembali" style="text;strokeColor=none;fillColor=none;align=left;verticalAlign=middle;spacingLeft=4;spacingRight=4;overflow=hidden;points=[[0,0.5],[1,0.5]];portConstraint=eastwest;rotatable=0;whiteSpace=wrap;html=1;" parent="YIY799zPQsZaPuYCzbY4-7" vertex="1">
          <mxGeometry y="150" width="140" height="30" as="geometry" />
        </mxCell>
        <mxCell id="YIY799zPQsZaPuYCzbY4-13" value="&lt;div&gt;status&lt;/div&gt;" style="text;strokeColor=none;fillColor=none;align=left;verticalAlign=middle;spacingLeft=4;spacingRight=4;overflow=hidden;points=[[0,0.5],[1,0.5]];portConstraint=eastwest;rotatable=0;whiteSpace=wrap;html=1;" parent="YIY799zPQsZaPuYCzbY4-7" vertex="1">
          <mxGeometry y="180" width="140" height="30" as="geometry" />
        </mxCell>
        <mxCell id="YIY799zPQsZaPuYCzbY4-14" value="id_petugas" style="text;strokeColor=none;fillColor=none;align=left;verticalAlign=middle;spacingLeft=4;spacingRight=4;overflow=hidden;points=[[0,0.5],[1,0.5]];portConstraint=eastwest;rotatable=0;whiteSpace=wrap;html=1;" parent="YIY799zPQsZaPuYCzbY4-7" vertex="1">
          <mxGeometry y="210" width="140" height="30" as="geometry" />
        </mxCell>
        <mxCell id="YIY799zPQsZaPuYCzbY4-15" value="Petugas" style="swimlane;fontStyle=0;childLayout=stackLayout;horizontal=1;startSize=30;horizontalStack=0;resizeParent=1;resizeParentMax=0;resizeLast=0;collapsible=1;marginBottom=0;whiteSpace=wrap;html=1;" parent="1" vertex="1">
          <mxGeometry x="460" y="2720" width="140" height="150" as="geometry" />
        </mxCell>
        <mxCell id="YIY799zPQsZaPuYCzbY4-16" value="id_petugas" style="text;strokeColor=none;fillColor=none;align=left;verticalAlign=middle;spacingLeft=4;spacingRight=4;overflow=hidden;points=[[0,0.5],[1,0.5]];portConstraint=eastwest;rotatable=0;whiteSpace=wrap;html=1;" parent="YIY799zPQsZaPuYCzbY4-15" vertex="1">
          <mxGeometry y="30" width="140" height="30" as="geometry" />
        </mxCell>
        <mxCell id="YIY799zPQsZaPuYCzbY4-21" value="nama_petugas" style="text;strokeColor=none;fillColor=none;align=left;verticalAlign=middle;spacingLeft=4;spacingRight=4;overflow=hidden;points=[[0,0.5],[1,0.5]];portConstraint=eastwest;rotatable=0;whiteSpace=wrap;html=1;" parent="YIY799zPQsZaPuYCzbY4-15" vertex="1">
          <mxGeometry y="60" width="140" height="30" as="geometry" />
        </mxCell>
        <mxCell id="YIY799zPQsZaPuYCzbY4-17" value="username" style="text;strokeColor=none;fillColor=none;align=left;verticalAlign=middle;spacingLeft=4;spacingRight=4;overflow=hidden;points=[[0,0.5],[1,0.5]];portConstraint=eastwest;rotatable=0;whiteSpace=wrap;html=1;" parent="YIY799zPQsZaPuYCzbY4-15" vertex="1">
          <mxGeometry y="90" width="140" height="30" as="geometry" />
        </mxCell>
        <mxCell id="YIY799zPQsZaPuYCzbY4-18" value="password" style="text;strokeColor=none;fillColor=none;align=left;verticalAlign=middle;spacingLeft=4;spacingRight=4;overflow=hidden;points=[[0,0.5],[1,0.5]];portConstraint=eastwest;rotatable=0;whiteSpace=wrap;html=1;" parent="YIY799zPQsZaPuYCzbY4-15" vertex="1">
          <mxGeometry y="120" width="140" height="30" as="geometry" />
        </mxCell>
        <mxCell id="YIY799zPQsZaPuYCzbY4-22" value="Buku" style="swimlane;fontStyle=0;childLayout=stackLayout;horizontal=1;startSize=30;horizontalStack=0;resizeParent=1;resizeParentMax=0;resizeLast=0;collapsible=1;marginBottom=0;whiteSpace=wrap;html=1;" parent="1" vertex="1">
          <mxGeometry x="770" y="2720" width="140" height="210" as="geometry" />
        </mxCell>
        <mxCell id="YIY799zPQsZaPuYCzbY4-23" value="id_buku" style="text;strokeColor=none;fillColor=none;align=left;verticalAlign=middle;spacingLeft=4;spacingRight=4;overflow=hidden;points=[[0,0.5],[1,0.5]];portConstraint=eastwest;rotatable=0;whiteSpace=wrap;html=1;" parent="YIY799zPQsZaPuYCzbY4-22" vertex="1">
          <mxGeometry y="30" width="140" height="30" as="geometry" />
        </mxCell>
        <mxCell id="YIY799zPQsZaPuYCzbY4-24" value="judul" style="text;strokeColor=none;fillColor=none;align=left;verticalAlign=middle;spacingLeft=4;spacingRight=4;overflow=hidden;points=[[0,0.5],[1,0.5]];portConstraint=eastwest;rotatable=0;whiteSpace=wrap;html=1;" parent="YIY799zPQsZaPuYCzbY4-22" vertex="1">
          <mxGeometry y="60" width="140" height="30" as="geometry" />
        </mxCell>
        <mxCell id="YIY799zPQsZaPuYCzbY4-25" value="penulis" style="text;strokeColor=none;fillColor=none;align=left;verticalAlign=middle;spacingLeft=4;spacingRight=4;overflow=hidden;points=[[0,0.5],[1,0.5]];portConstraint=eastwest;rotatable=0;whiteSpace=wrap;html=1;" parent="YIY799zPQsZaPuYCzbY4-22" vertex="1">
          <mxGeometry y="90" width="140" height="30" as="geometry" />
        </mxCell>
        <mxCell id="YIY799zPQsZaPuYCzbY4-26" value="tahun_terbit" style="text;strokeColor=none;fillColor=none;align=left;verticalAlign=middle;spacingLeft=4;spacingRight=4;overflow=hidden;points=[[0,0.5],[1,0.5]];portConstraint=eastwest;rotatable=0;whiteSpace=wrap;html=1;" parent="YIY799zPQsZaPuYCzbY4-22" vertex="1">
          <mxGeometry y="120" width="140" height="30" as="geometry" />
        </mxCell>
        <mxCell id="YIY799zPQsZaPuYCzbY4-27" value="stok" style="text;strokeColor=none;fillColor=none;align=left;verticalAlign=middle;spacingLeft=4;spacingRight=4;overflow=hidden;points=[[0,0.5],[1,0.5]];portConstraint=eastwest;rotatable=0;whiteSpace=wrap;html=1;" parent="YIY799zPQsZaPuYCzbY4-22" vertex="1">
          <mxGeometry y="150" width="140" height="30" as="geometry" />
        </mxCell>
        <mxCell id="YIY799zPQsZaPuYCzbY4-28" value="id_kategori" style="text;strokeColor=none;fillColor=none;align=left;verticalAlign=middle;spacingLeft=4;spacingRight=4;overflow=hidden;points=[[0,0.5],[1,0.5]];portConstraint=eastwest;rotatable=0;whiteSpace=wrap;html=1;" parent="YIY799zPQsZaPuYCzbY4-22" vertex="1">
          <mxGeometry y="180" width="140" height="30" as="geometry" />
        </mxCell>
        <mxCell id="YIY799zPQsZaPuYCzbY4-37" style="edgeStyle=none;curved=1;rounded=0;orthogonalLoop=1;jettySize=auto;html=1;exitX=1;exitY=0.5;exitDx=0;exitDy=0;entryX=0;entryY=0.5;entryDx=0;entryDy=0;fontSize=12;startSize=8;endSize=8;endArrow=none;startFill=0;" parent="1" source="YIY799zPQsZaPuYCzbY4-34" target="YIY799zPQsZaPuYCzbY4-35" edge="1">
          <mxGeometry relative="1" as="geometry" />
        </mxCell>
        <mxCell id="YIY799zPQsZaPuYCzbY4-34" value="&lt;font style=&quot;font-size: 18px;&quot;&gt;Anggota&lt;/font&gt;" style="rounded=0;whiteSpace=wrap;html=1;" parent="1" vertex="1">
          <mxGeometry x="460" y="3255" width="140" height="70" as="geometry" />
        </mxCell>
        <mxCell id="YIY799zPQsZaPuYCzbY4-38" style="edgeStyle=none;curved=1;rounded=0;orthogonalLoop=1;jettySize=auto;html=1;exitX=1;exitY=0.5;exitDx=0;exitDy=0;entryX=0;entryY=0.5;entryDx=0;entryDy=0;fontSize=12;startSize=8;endSize=8;endArrow=none;startFill=0;" parent="1" source="YIY799zPQsZaPuYCzbY4-35" target="YIY799zPQsZaPuYCzbY4-36" edge="1">
          <mxGeometry relative="1" as="geometry" />
        </mxCell>
        <mxCell id="YIY799zPQsZaPuYCzbY4-35" value="&lt;font style=&quot;font-size: 17px;&quot;&gt;Peminjaman&lt;/font&gt;" style="rhombus;whiteSpace=wrap;html=1;" parent="1" vertex="1">
          <mxGeometry x="709.75" y="3220" width="132" height="140" as="geometry" />
        </mxCell>
        <mxCell id="YIY799zPQsZaPuYCzbY4-36" value="&lt;font style=&quot;font-size: 18px;&quot;&gt;Buku&lt;/font&gt;" style="rounded=0;whiteSpace=wrap;html=1;" parent="1" vertex="1">
          <mxGeometry x="950" y="3255" width="140" height="70" as="geometry" />
        </mxCell>
        <mxCell id="YIY799zPQsZaPuYCzbY4-39" style="edgeStyle=none;curved=1;rounded=0;orthogonalLoop=1;jettySize=auto;html=1;exitX=1;exitY=0.5;exitDx=0;exitDy=0;entryX=0;entryY=0.5;entryDx=0;entryDy=0;fontSize=12;startSize=8;endSize=8;endArrow=none;startFill=0;" parent="1" source="YIY799zPQsZaPuYCzbY4-40" target="YIY799zPQsZaPuYCzbY4-42" edge="1">
          <mxGeometry relative="1" as="geometry" />
        </mxCell>
        <mxCell id="YIY799zPQsZaPuYCzbY4-40" value="&lt;font style=&quot;font-size: 18px;&quot;&gt;Petugas&lt;/font&gt;" style="rounded=0;whiteSpace=wrap;html=1;" parent="1" vertex="1">
          <mxGeometry x="460.75" y="3425" width="140" height="70" as="geometry" />
        </mxCell>
        <mxCell id="YIY799zPQsZaPuYCzbY4-41" style="edgeStyle=none;curved=1;rounded=0;orthogonalLoop=1;jettySize=auto;html=1;exitX=1;exitY=0.5;exitDx=0;exitDy=0;entryX=0;entryY=0.5;entryDx=0;entryDy=0;fontSize=12;startSize=8;endSize=8;endArrow=none;startFill=0;" parent="1" source="YIY799zPQsZaPuYCzbY4-42" target="YIY799zPQsZaPuYCzbY4-43" edge="1">
          <mxGeometry relative="1" as="geometry" />
        </mxCell>
        <mxCell id="YIY799zPQsZaPuYCzbY4-42" value="&lt;font style=&quot;font-size: 17px;&quot;&gt;Peminjaman&lt;/font&gt;" style="rhombus;whiteSpace=wrap;html=1;" parent="1" vertex="1">
          <mxGeometry x="710.5" y="3390" width="132" height="140" as="geometry" />
        </mxCell>
        <mxCell id="YIY799zPQsZaPuYCzbY4-43" value="&lt;font style=&quot;font-size: 18px;&quot;&gt;Buku&lt;/font&gt;" style="rounded=0;whiteSpace=wrap;html=1;" parent="1" vertex="1">
          <mxGeometry x="950.75" y="3425" width="140" height="70" as="geometry" />
        </mxCell>
        <mxCell id="YIY799zPQsZaPuYCzbY4-44" style="edgeStyle=none;curved=1;rounded=0;orthogonalLoop=1;jettySize=auto;html=1;exitX=1;exitY=0.5;exitDx=0;exitDy=0;entryX=0;entryY=0.5;entryDx=0;entryDy=0;fontSize=12;startSize=8;endSize=8;endArrow=none;startFill=0;" parent="1" source="YIY799zPQsZaPuYCzbY4-45" target="YIY799zPQsZaPuYCzbY4-47" edge="1">
          <mxGeometry relative="1" as="geometry" />
        </mxCell>
        <mxCell id="YIY799zPQsZaPuYCzbY4-45" value="&lt;font style=&quot;font-size: 18px;&quot;&gt;Petugas&lt;/font&gt;" style="rounded=0;whiteSpace=wrap;html=1;" parent="1" vertex="1">
          <mxGeometry x="461.5" y="3595" width="140" height="70" as="geometry" />
        </mxCell>
        <mxCell id="YIY799zPQsZaPuYCzbY4-46" style="edgeStyle=none;curved=1;rounded=0;orthogonalLoop=1;jettySize=auto;html=1;exitX=1;exitY=0.5;exitDx=0;exitDy=0;entryX=0;entryY=0.5;entryDx=0;entryDy=0;fontSize=12;startSize=8;endSize=8;endArrow=none;startFill=0;" parent="1" source="YIY799zPQsZaPuYCzbY4-47" target="YIY799zPQsZaPuYCzbY4-48" edge="1">
          <mxGeometry relative="1" as="geometry" />
        </mxCell>
        <mxCell id="YIY799zPQsZaPuYCzbY4-47" value="&lt;font style=&quot;font-size: 17px;&quot;&gt;Peminjaman&lt;/font&gt;" style="rhombus;whiteSpace=wrap;html=1;" parent="1" vertex="1">
          <mxGeometry x="711.25" y="3560" width="132" height="140" as="geometry" />
        </mxCell>
        <mxCell id="YIY799zPQsZaPuYCzbY4-48" value="&lt;font style=&quot;font-size: 18px;&quot;&gt;Anggota&lt;/font&gt;" style="rounded=0;whiteSpace=wrap;html=1;" parent="1" vertex="1">
          <mxGeometry x="951.5" y="3595" width="140" height="70" as="geometry" />
        </mxCell>
        <mxCell id="YIY799zPQsZaPuYCzbY4-49" value="&lt;font style=&quot;font-size: 21px;&quot;&gt;1&lt;/font&gt;" style="text;html=1;align=center;verticalAlign=middle;whiteSpace=wrap;rounded=0;" parent="1" vertex="1">
          <mxGeometry x="675.25" y="3255" width="60" height="30" as="geometry" />
        </mxCell>
        <mxCell id="YIY799zPQsZaPuYCzbY4-50" value="&lt;font style=&quot;font-size: 21px;&quot;&gt;M&lt;/font&gt;" style="text;html=1;align=center;verticalAlign=middle;whiteSpace=wrap;rounded=0;" parent="1" vertex="1">
          <mxGeometry x="591.5" y="3255" width="60" height="30" as="geometry" />
        </mxCell>
        <mxCell id="YIY799zPQsZaPuYCzbY4-51" value="&lt;font style=&quot;font-size: 21px;&quot;&gt;1&lt;/font&gt;" style="text;html=1;align=center;verticalAlign=middle;whiteSpace=wrap;rounded=0;" parent="1" vertex="1">
          <mxGeometry x="823.75" y="3255" width="60" height="30" as="geometry" />
        </mxCell>
        <mxCell id="YIY799zPQsZaPuYCzbY4-52" value="&lt;font style=&quot;font-size: 21px;&quot;&gt;M&lt;/font&gt;" style="text;html=1;align=center;verticalAlign=middle;whiteSpace=wrap;rounded=0;" parent="1" vertex="1">
          <mxGeometry x="900" y="3255" width="60" height="30" as="geometry" />
        </mxCell>
        <mxCell id="YIY799zPQsZaPuYCzbY4-53" value="&lt;font style=&quot;font-size: 21px;&quot;&gt;M&lt;/font&gt;" style="text;html=1;align=center;verticalAlign=middle;whiteSpace=wrap;rounded=0;" parent="1" vertex="1">
          <mxGeometry x="600" y="3425" width="60" height="30" as="geometry" />
        </mxCell>
        <mxCell id="YIY799zPQsZaPuYCzbY4-54" value="&lt;font style=&quot;font-size: 21px;&quot;&gt;M&lt;/font&gt;" style="text;html=1;align=center;verticalAlign=middle;whiteSpace=wrap;rounded=0;" parent="1" vertex="1">
          <mxGeometry x="900" y="3425" width="60" height="30" as="geometry" />
        </mxCell>
        <mxCell id="YIY799zPQsZaPuYCzbY4-55" value="&lt;font style=&quot;font-size: 21px;&quot;&gt;M&lt;/font&gt;" style="text;html=1;align=center;verticalAlign=middle;whiteSpace=wrap;rounded=0;" parent="1" vertex="1">
          <mxGeometry x="601.5" y="3595" width="60" height="30" as="geometry" />
        </mxCell>
        <mxCell id="YIY799zPQsZaPuYCzbY4-56" value="&lt;font style=&quot;font-size: 21px;&quot;&gt;1&lt;/font&gt;" style="text;html=1;align=center;verticalAlign=middle;whiteSpace=wrap;rounded=0;" parent="1" vertex="1">
          <mxGeometry x="823.75" y="3595" width="60" height="30" as="geometry" />
        </mxCell>
        <mxCell id="YIY799zPQsZaPuYCzbY4-57" value="&lt;font style=&quot;font-size: 21px;&quot;&gt;1&lt;/font&gt;" style="text;html=1;align=center;verticalAlign=middle;whiteSpace=wrap;rounded=0;" parent="1" vertex="1">
          <mxGeometry x="830" y="3425" width="60" height="30" as="geometry" />
        </mxCell>
        <mxCell id="YIY799zPQsZaPuYCzbY4-58" value="&lt;span style=&quot;font-size: 21px;&quot;&gt;N&lt;/span&gt;" style="text;html=1;align=center;verticalAlign=middle;whiteSpace=wrap;rounded=0;" parent="1" vertex="1">
          <mxGeometry x="675.25" y="3425" width="60" height="30" as="geometry" />
        </mxCell>
        <mxCell id="YIY799zPQsZaPuYCzbY4-59" value="&lt;span style=&quot;font-size: 21px;&quot;&gt;N&lt;/span&gt;" style="text;html=1;align=center;verticalAlign=middle;whiteSpace=wrap;rounded=0;" parent="1" vertex="1">
          <mxGeometry x="675.25" y="3595" width="60" height="30" as="geometry" />
        </mxCell>
        <mxCell id="YIY799zPQsZaPuYCzbY4-60" value="&lt;span style=&quot;font-size: 21px;&quot;&gt;N&lt;/span&gt;" style="text;html=1;align=center;verticalAlign=middle;whiteSpace=wrap;rounded=0;" parent="1" vertex="1">
          <mxGeometry x="900" y="3595" width="60" height="30" as="geometry" />
        </mxCell>
        <mxCell id="YIY799zPQsZaPuYCzbY4-87" style="edgeStyle=none;curved=1;rounded=0;orthogonalLoop=1;jettySize=auto;html=1;exitX=0;exitY=0.5;exitDx=0;exitDy=0;entryX=1;entryY=0.5;entryDx=0;entryDy=0;fontSize=12;startSize=8;endSize=8;endArrow=none;startFill=0;" parent="1" source="YIY799zPQsZaPuYCzbY4-61" target="YIY799zPQsZaPuYCzbY4-67" edge="1">
          <mxGeometry relative="1" as="geometry" />
        </mxCell>
        <mxCell id="YIY799zPQsZaPuYCzbY4-88" style="edgeStyle=none;curved=1;rounded=0;orthogonalLoop=1;jettySize=auto;html=1;entryX=0;entryY=0.5;entryDx=0;entryDy=0;fontSize=12;startSize=8;endSize=8;endArrow=none;startFill=0;" parent="1" source="YIY799zPQsZaPuYCzbY4-61" target="YIY799zPQsZaPuYCzbY4-68" edge="1">
          <mxGeometry relative="1" as="geometry" />
        </mxCell>
        <mxCell id="YIY799zPQsZaPuYCzbY4-109" style="edgeStyle=none;curved=1;rounded=0;orthogonalLoop=1;jettySize=auto;html=1;exitX=0.5;exitY=1;exitDx=0;exitDy=0;entryX=0.5;entryY=0;entryDx=0;entryDy=0;fontSize=12;startSize=8;endSize=8;" parent="1" source="YIY799zPQsZaPuYCzbY4-61" target="YIY799zPQsZaPuYCzbY4-107" edge="1">
          <mxGeometry relative="1" as="geometry" />
        </mxCell>
        <mxCell id="YIY799zPQsZaPuYCzbY4-110" style="edgeStyle=none;curved=1;rounded=0;orthogonalLoop=1;jettySize=auto;html=1;exitX=0.5;exitY=1;exitDx=0;exitDy=0;entryX=0.5;entryY=0;entryDx=0;entryDy=0;fontSize=12;startSize=8;endSize=8;" parent="1" source="YIY799zPQsZaPuYCzbY4-61" target="YIY799zPQsZaPuYCzbY4-102" edge="1">
          <mxGeometry relative="1" as="geometry" />
        </mxCell>
        <mxCell id="YIY799zPQsZaPuYCzbY4-111" style="edgeStyle=none;curved=1;rounded=0;orthogonalLoop=1;jettySize=auto;html=1;exitX=0.5;exitY=1;exitDx=0;exitDy=0;entryX=0.5;entryY=0;entryDx=0;entryDy=0;fontSize=12;startSize=8;endSize=8;" parent="1" source="YIY799zPQsZaPuYCzbY4-61" target="YIY799zPQsZaPuYCzbY4-101" edge="1">
          <mxGeometry relative="1" as="geometry" />
        </mxCell>
        <mxCell id="YIY799zPQsZaPuYCzbY4-112" style="edgeStyle=none;curved=1;rounded=0;orthogonalLoop=1;jettySize=auto;html=1;exitX=0.5;exitY=1;exitDx=0;exitDy=0;entryX=0.5;entryY=0;entryDx=0;entryDy=0;fontSize=12;startSize=8;endSize=8;" parent="1" source="YIY799zPQsZaPuYCzbY4-61" target="YIY799zPQsZaPuYCzbY4-104" edge="1">
          <mxGeometry relative="1" as="geometry" />
        </mxCell>
        <mxCell id="YIY799zPQsZaPuYCzbY4-113" style="edgeStyle=none;curved=1;rounded=0;orthogonalLoop=1;jettySize=auto;html=1;exitX=0.5;exitY=1;exitDx=0;exitDy=0;entryX=0.5;entryY=0;entryDx=0;entryDy=0;fontSize=12;startSize=8;endSize=8;" parent="1" source="YIY799zPQsZaPuYCzbY4-61" target="YIY799zPQsZaPuYCzbY4-103" edge="1">
          <mxGeometry relative="1" as="geometry" />
        </mxCell>
        <mxCell id="YIY799zPQsZaPuYCzbY4-114" style="edgeStyle=none;curved=1;rounded=0;orthogonalLoop=1;jettySize=auto;html=1;exitX=0.5;exitY=1;exitDx=0;exitDy=0;entryX=0.5;entryY=0;entryDx=0;entryDy=0;fontSize=12;startSize=8;endSize=8;" parent="1" source="YIY799zPQsZaPuYCzbY4-61" target="YIY799zPQsZaPuYCzbY4-105" edge="1">
          <mxGeometry relative="1" as="geometry" />
        </mxCell>
        <mxCell id="YIY799zPQsZaPuYCzbY4-115" style="edgeStyle=none;curved=1;rounded=0;orthogonalLoop=1;jettySize=auto;html=1;exitX=0.5;exitY=1;exitDx=0;exitDy=0;entryX=0.5;entryY=0;entryDx=0;entryDy=0;fontSize=12;startSize=8;endSize=8;" parent="1" source="YIY799zPQsZaPuYCzbY4-61" target="YIY799zPQsZaPuYCzbY4-108" edge="1">
          <mxGeometry relative="1" as="geometry" />
        </mxCell>
        <mxCell id="YIY799zPQsZaPuYCzbY4-61" value="&lt;font style=&quot;font-size: 17px;&quot;&gt;Peminjaman&lt;/font&gt;" style="rhombus;whiteSpace=wrap;html=1;" parent="1" vertex="1">
          <mxGeometry x="762.5" y="4470" width="132" height="140" as="geometry" />
        </mxCell>
        <mxCell id="YIY799zPQsZaPuYCzbY4-62" value="&lt;span style=&quot;font-size: 64px;&quot;&gt;EER&lt;/span&gt;" style="text;html=1;align=center;verticalAlign=middle;whiteSpace=wrap;rounded=0;" parent="1" vertex="1">
          <mxGeometry x="894.5" y="4330" width="210" height="140" as="geometry" />
        </mxCell>
        <mxCell id="YIY799zPQsZaPuYCzbY4-66" value="" style="edgeStyle=none;curved=1;rounded=0;orthogonalLoop=1;jettySize=auto;html=1;fontSize=12;startSize=8;endSize=8;endArrow=none;startFill=0;" parent="1" source="YIY799zPQsZaPuYCzbY4-63" target="YIY799zPQsZaPuYCzbY4-61" edge="1">
          <mxGeometry relative="1" as="geometry">
            <mxPoint x="828.5000000000002" y="4425" as="targetPoint" />
          </mxGeometry>
        </mxCell>
        <mxCell id="YIY799zPQsZaPuYCzbY4-74" style="edgeStyle=none;curved=1;rounded=0;orthogonalLoop=1;jettySize=auto;html=1;exitX=0.25;exitY=0;exitDx=0;exitDy=0;entryX=0.5;entryY=1;entryDx=0;entryDy=0;fontSize=12;startSize=8;endSize=8;endArrow=none;startFill=0;" parent="1" source="YIY799zPQsZaPuYCzbY4-63" target="YIY799zPQsZaPuYCzbY4-70" edge="1">
          <mxGeometry relative="1" as="geometry" />
        </mxCell>
        <mxCell id="YIY799zPQsZaPuYCzbY4-75" style="edgeStyle=none;curved=1;rounded=0;orthogonalLoop=1;jettySize=auto;html=1;exitX=0.75;exitY=0;exitDx=0;exitDy=0;entryX=0.5;entryY=1;entryDx=0;entryDy=0;fontSize=12;startSize=8;endSize=8;endArrow=none;startFill=0;" parent="1" source="YIY799zPQsZaPuYCzbY4-63" target="YIY799zPQsZaPuYCzbY4-71" edge="1">
          <mxGeometry relative="1" as="geometry" />
        </mxCell>
        <mxCell id="YIY799zPQsZaPuYCzbY4-76" style="edgeStyle=none;curved=1;rounded=0;orthogonalLoop=1;jettySize=auto;html=1;exitX=1;exitY=0;exitDx=0;exitDy=0;entryX=0.5;entryY=1;entryDx=0;entryDy=0;fontSize=12;startSize=8;endSize=8;endArrow=none;startFill=0;" parent="1" source="YIY799zPQsZaPuYCzbY4-63" target="YIY799zPQsZaPuYCzbY4-72" edge="1">
          <mxGeometry relative="1" as="geometry" />
        </mxCell>
        <mxCell id="YIY799zPQsZaPuYCzbY4-63" value="&lt;span style=&quot;font-size: 18px;&quot;&gt;Petugas&lt;/span&gt;" style="rounded=0;whiteSpace=wrap;html=1;" parent="1" vertex="1">
          <mxGeometry x="748.5" y="4240" width="160" height="70" as="geometry" />
        </mxCell>
        <mxCell id="YIY799zPQsZaPuYCzbY4-82" style="edgeStyle=none;curved=1;rounded=0;orthogonalLoop=1;jettySize=auto;html=1;exitX=0;exitY=0;exitDx=0;exitDy=0;entryX=1;entryY=0.5;entryDx=0;entryDy=0;fontSize=12;startSize=8;endSize=8;endArrow=none;startFill=0;" parent="1" source="YIY799zPQsZaPuYCzbY4-67" target="YIY799zPQsZaPuYCzbY4-77" edge="1">
          <mxGeometry relative="1" as="geometry" />
        </mxCell>
        <mxCell id="YIY799zPQsZaPuYCzbY4-83" style="edgeStyle=none;curved=1;rounded=0;orthogonalLoop=1;jettySize=auto;html=1;exitX=0;exitY=0.25;exitDx=0;exitDy=0;entryX=1;entryY=0.5;entryDx=0;entryDy=0;fontSize=12;startSize=8;endSize=8;endArrow=none;startFill=0;" parent="1" source="YIY799zPQsZaPuYCzbY4-67" target="YIY799zPQsZaPuYCzbY4-78" edge="1">
          <mxGeometry relative="1" as="geometry" />
        </mxCell>
        <mxCell id="YIY799zPQsZaPuYCzbY4-84" style="edgeStyle=none;curved=1;rounded=0;orthogonalLoop=1;jettySize=auto;html=1;exitX=0;exitY=0.5;exitDx=0;exitDy=0;fontSize=12;startSize=8;endSize=8;endArrow=none;startFill=0;" parent="1" source="YIY799zPQsZaPuYCzbY4-67" target="YIY799zPQsZaPuYCzbY4-79" edge="1">
          <mxGeometry relative="1" as="geometry" />
        </mxCell>
        <mxCell id="YIY799zPQsZaPuYCzbY4-85" style="edgeStyle=none;curved=1;rounded=0;orthogonalLoop=1;jettySize=auto;html=1;exitX=0;exitY=0.75;exitDx=0;exitDy=0;entryX=1;entryY=0.5;entryDx=0;entryDy=0;fontSize=12;startSize=8;endSize=8;endArrow=none;startFill=0;" parent="1" source="YIY799zPQsZaPuYCzbY4-67" target="YIY799zPQsZaPuYCzbY4-80" edge="1">
          <mxGeometry relative="1" as="geometry" />
        </mxCell>
        <mxCell id="YIY799zPQsZaPuYCzbY4-86" style="edgeStyle=none;curved=1;rounded=0;orthogonalLoop=1;jettySize=auto;html=1;exitX=0;exitY=1;exitDx=0;exitDy=0;entryX=1;entryY=0.5;entryDx=0;entryDy=0;fontSize=12;startSize=8;endSize=8;endArrow=none;startFill=0;" parent="1" source="YIY799zPQsZaPuYCzbY4-67" target="YIY799zPQsZaPuYCzbY4-81" edge="1">
          <mxGeometry relative="1" as="geometry" />
        </mxCell>
        <mxCell id="YIY799zPQsZaPuYCzbY4-67" value="&lt;span style=&quot;font-size: 18px;&quot;&gt;Anggota&lt;/span&gt;" style="rounded=0;whiteSpace=wrap;html=1;" parent="1" vertex="1">
          <mxGeometry x="470" y="4505" width="160" height="70" as="geometry" />
        </mxCell>
        <mxCell id="YIY799zPQsZaPuYCzbY4-96" style="edgeStyle=none;curved=1;rounded=0;orthogonalLoop=1;jettySize=auto;html=1;exitX=1;exitY=0;exitDx=0;exitDy=0;entryX=0;entryY=0.5;entryDx=0;entryDy=0;fontSize=12;startSize=8;endSize=8;endArrow=none;startFill=0;" parent="1" source="YIY799zPQsZaPuYCzbY4-68" target="YIY799zPQsZaPuYCzbY4-89" edge="1">
          <mxGeometry relative="1" as="geometry" />
        </mxCell>
        <mxCell id="YIY799zPQsZaPuYCzbY4-97" style="edgeStyle=none;curved=1;rounded=0;orthogonalLoop=1;jettySize=auto;html=1;exitX=1;exitY=0.25;exitDx=0;exitDy=0;entryX=0;entryY=0.5;entryDx=0;entryDy=0;fontSize=12;startSize=8;endSize=8;endArrow=none;startFill=0;" parent="1" source="YIY799zPQsZaPuYCzbY4-68" target="YIY799zPQsZaPuYCzbY4-90" edge="1">
          <mxGeometry relative="1" as="geometry" />
        </mxCell>
        <mxCell id="YIY799zPQsZaPuYCzbY4-98" style="edgeStyle=none;curved=1;rounded=0;orthogonalLoop=1;jettySize=auto;html=1;exitX=1;exitY=0.5;exitDx=0;exitDy=0;entryX=0;entryY=0.5;entryDx=0;entryDy=0;fontSize=12;startSize=8;endSize=8;endArrow=none;startFill=0;" parent="1" source="YIY799zPQsZaPuYCzbY4-68" target="YIY799zPQsZaPuYCzbY4-91" edge="1">
          <mxGeometry relative="1" as="geometry" />
        </mxCell>
        <mxCell id="YIY799zPQsZaPuYCzbY4-99" style="edgeStyle=none;curved=1;rounded=0;orthogonalLoop=1;jettySize=auto;html=1;exitX=1;exitY=0.75;exitDx=0;exitDy=0;entryX=0;entryY=0.5;entryDx=0;entryDy=0;fontSize=12;startSize=8;endSize=8;endArrow=none;startFill=0;" parent="1" source="YIY799zPQsZaPuYCzbY4-68" target="YIY799zPQsZaPuYCzbY4-92" edge="1">
          <mxGeometry relative="1" as="geometry" />
        </mxCell>
        <mxCell id="YIY799zPQsZaPuYCzbY4-100" style="edgeStyle=none;curved=1;rounded=0;orthogonalLoop=1;jettySize=auto;html=1;exitX=1;exitY=1;exitDx=0;exitDy=0;entryX=0;entryY=0.5;entryDx=0;entryDy=0;fontSize=12;startSize=8;endSize=8;endArrow=none;startFill=0;" parent="1" source="YIY799zPQsZaPuYCzbY4-68" target="YIY799zPQsZaPuYCzbY4-93" edge="1">
          <mxGeometry relative="1" as="geometry" />
        </mxCell>
        <mxCell id="YIY799zPQsZaPuYCzbY4-68" value="&lt;span style=&quot;font-size: 18px;&quot;&gt;Buku&lt;/span&gt;" style="rounded=0;whiteSpace=wrap;html=1;" parent="1" vertex="1">
          <mxGeometry x="1028.5" y="4505" width="160" height="70" as="geometry" />
        </mxCell>
        <mxCell id="YIY799zPQsZaPuYCzbY4-73" style="edgeStyle=none;curved=1;rounded=0;orthogonalLoop=1;jettySize=auto;html=1;exitX=0.5;exitY=1;exitDx=0;exitDy=0;entryX=0;entryY=0;entryDx=0;entryDy=0;fontSize=12;startSize=8;endSize=8;strokeWidth=1;endArrow=none;endFill=1;startFill=0;" parent="1" source="YIY799zPQsZaPuYCzbY4-69" target="YIY799zPQsZaPuYCzbY4-63" edge="1">
          <mxGeometry relative="1" as="geometry" />
        </mxCell>
        <mxCell id="YIY799zPQsZaPuYCzbY4-69" value="&lt;font style=&quot;font-size: 18px;&quot;&gt;&lt;u&gt;&lt;b&gt;id_petugas&lt;/b&gt;&lt;/u&gt;&lt;/font&gt;" style="ellipse;whiteSpace=wrap;html=1;" parent="1" vertex="1">
          <mxGeometry x="448.5" y="4030" width="160" height="90" as="geometry" />
        </mxCell>
        <mxCell id="YIY799zPQsZaPuYCzbY4-70" value="&lt;font style=&quot;font-size: 18px;&quot;&gt;nama_petugas&lt;/font&gt;" style="ellipse;whiteSpace=wrap;html=1;" parent="1" vertex="1">
          <mxGeometry x="648.5" y="4030" width="160" height="90" as="geometry" />
        </mxCell>
        <mxCell id="YIY799zPQsZaPuYCzbY4-71" value="&lt;font style=&quot;font-size: 18px;&quot;&gt;username&lt;/font&gt;" style="ellipse;whiteSpace=wrap;html=1;" parent="1" vertex="1">
          <mxGeometry x="845" y="4030" width="160" height="90" as="geometry" />
        </mxCell>
        <mxCell id="YIY799zPQsZaPuYCzbY4-72" value="&lt;font style=&quot;font-size: 18px;&quot;&gt;password&lt;/font&gt;" style="ellipse;whiteSpace=wrap;html=1;" parent="1" vertex="1">
          <mxGeometry x="1048.5" y="4030" width="160" height="90" as="geometry" />
        </mxCell>
        <mxCell id="YIY799zPQsZaPuYCzbY4-77" value="&lt;font style=&quot;font-size: 18px;&quot;&gt;&lt;u&gt;&lt;b&gt;id_anggota&lt;/b&gt;&lt;/u&gt;&lt;/font&gt;" style="ellipse;whiteSpace=wrap;html=1;" parent="1" vertex="1">
          <mxGeometry x="591.5" y="4350" width="160" height="90" as="geometry" />
        </mxCell>
        <mxCell id="YIY799zPQsZaPuYCzbY4-78" value="&lt;font style=&quot;font-size: 18px;&quot;&gt;nama&lt;/font&gt;" style="ellipse;whiteSpace=wrap;html=1;" parent="1" vertex="1">
          <mxGeometry x="451.5" y="4240" width="160" height="90" as="geometry" />
        </mxCell>
        <mxCell id="YIY799zPQsZaPuYCzbY4-79" value="&lt;font style=&quot;font-size: 18px;&quot;&gt;alamat&lt;/font&gt;" style="ellipse;whiteSpace=wrap;html=1;" parent="1" vertex="1">
          <mxGeometry x="327.5" y="4335" width="160" height="90" as="geometry" />
        </mxCell>
        <mxCell id="YIY799zPQsZaPuYCzbY4-80" value="&lt;font style=&quot;font-size: 18px;&quot;&gt;email&lt;/font&gt;" style="ellipse;whiteSpace=wrap;html=1;" parent="1" vertex="1">
          <mxGeometry x="93.75" y="4390" width="160" height="90" as="geometry" />
        </mxCell>
        <mxCell id="YIY799zPQsZaPuYCzbY4-81" value="&lt;font style=&quot;font-size: 18px;&quot;&gt;no_hp&lt;/font&gt;" style="ellipse;whiteSpace=wrap;html=1;" parent="1" vertex="1">
          <mxGeometry x="81.5" y="4525" width="160" height="90" as="geometry" />
        </mxCell>
        <mxCell id="YIY799zPQsZaPuYCzbY4-89" value="&lt;font style=&quot;font-size: 18px;&quot;&gt;&lt;u&gt;&lt;b&gt;id_buku&lt;/b&gt;&lt;/u&gt;&lt;/font&gt;" style="ellipse;whiteSpace=wrap;html=1;" parent="1" vertex="1">
          <mxGeometry x="1100" y="4260" width="160" height="90" as="geometry" />
        </mxCell>
        <mxCell id="YIY799zPQsZaPuYCzbY4-90" value="&lt;font style=&quot;font-size: 18px;&quot;&gt;judul&lt;/font&gt;" style="ellipse;whiteSpace=wrap;html=1;" parent="1" vertex="1">
          <mxGeometry x="1260" y="4360" width="160" height="90" as="geometry" />
        </mxCell>
        <mxCell id="YIY799zPQsZaPuYCzbY4-91" value="&lt;font style=&quot;font-size: 18px;&quot;&gt;penulis&lt;/font&gt;" style="ellipse;whiteSpace=wrap;html=1;" parent="1" vertex="1">
          <mxGeometry x="1510" y="4380" width="160" height="90" as="geometry" />
        </mxCell>
        <mxCell id="YIY799zPQsZaPuYCzbY4-92" value="&lt;font style=&quot;font-size: 18px;&quot;&gt;tahun_terbit&lt;/font&gt;" style="ellipse;whiteSpace=wrap;html=1;" parent="1" vertex="1">
          <mxGeometry x="1370" y="4520" width="160" height="90" as="geometry" />
        </mxCell>
        <mxCell id="YIY799zPQsZaPuYCzbY4-93" value="&lt;font style=&quot;font-size: 18px;&quot;&gt;stok&lt;/font&gt;" style="ellipse;whiteSpace=wrap;html=1;" parent="1" vertex="1">
          <mxGeometry x="1320" y="4650" width="160" height="90" as="geometry" />
        </mxCell>
        <mxCell id="YIY799zPQsZaPuYCzbY4-101" value="&lt;font style=&quot;font-size: 18px;&quot;&gt;&lt;u&gt;&lt;b&gt;id_petugas&lt;/b&gt;&lt;/u&gt;&lt;/font&gt;" style="ellipse;whiteSpace=wrap;html=1;" parent="1" vertex="1">
          <mxGeometry x="762.5" y="4820" width="160" height="90" as="geometry" />
        </mxCell>
        <mxCell id="YIY799zPQsZaPuYCzbY4-102" value="&lt;font style=&quot;font-size: 18px;&quot;&gt;&lt;u&gt;&lt;b&gt;id_anggota&lt;/b&gt;&lt;/u&gt;&lt;/font&gt;" style="ellipse;whiteSpace=wrap;html=1;" parent="1" vertex="1">
          <mxGeometry x="591.5" y="4930" width="160" height="90" as="geometry" />
        </mxCell>
        <mxCell id="YIY799zPQsZaPuYCzbY4-103" value="&lt;font style=&quot;font-size: 18px;&quot;&gt;&lt;u&gt;&lt;b&gt;id_buku&lt;/b&gt;&lt;/u&gt;&lt;/font&gt;" style="ellipse;whiteSpace=wrap;html=1;" parent="1" vertex="1">
          <mxGeometry x="1000" y="4820" width="160" height="90" as="geometry" />
        </mxCell>
        <mxCell id="YIY799zPQsZaPuYCzbY4-104" value="&lt;font style=&quot;font-size: 18px;&quot;&gt;&lt;u&gt;&lt;b&gt;id_peminjam&lt;/b&gt;&lt;/u&gt;&lt;/font&gt;" style="ellipse;whiteSpace=wrap;html=1;" parent="1" vertex="1">
          <mxGeometry x="910" y="4950" width="160" height="90" as="geometry" />
        </mxCell>
        <mxCell id="YIY799zPQsZaPuYCzbY4-105" value="&lt;font style=&quot;font-size: 18px;&quot;&gt;&lt;u&gt;&lt;b&gt;tanggal_pinjam&lt;/b&gt;&lt;/u&gt;&lt;/font&gt;" style="ellipse;whiteSpace=wrap;html=1;" parent="1" vertex="1">
          <mxGeometry x="1200" y="4870" width="160" height="90" as="geometry" />
        </mxCell>
        <mxCell id="YIY799zPQsZaPuYCzbY4-107" value="&lt;font style=&quot;font-size: 18px;&quot;&gt;&lt;u&gt;&lt;b&gt;tanggal_kembali&lt;/b&gt;&lt;/u&gt;&lt;/font&gt;" style="ellipse;whiteSpace=wrap;html=1;" parent="1" vertex="1">
          <mxGeometry x="531.5" y="4710" width="160" height="90" as="geometry" />
        </mxCell>
        <mxCell id="YIY799zPQsZaPuYCzbY4-108" value="&lt;font style=&quot;font-size: 18px;&quot;&gt;&lt;u&gt;&lt;b&gt;status&lt;/b&gt;&lt;/u&gt;&lt;/font&gt;" style="ellipse;whiteSpace=wrap;html=1;" parent="1" vertex="1">
          <mxGeometry x="1060" y="4660" width="160" height="90" as="geometry" />
        </mxCell>
        <mxCell id="YIY799zPQsZaPuYCzbY4-118" value="&lt;span style=&quot;font-size: 18px;&quot;&gt;Anggota Tidak terdaftar&lt;/span&gt;" style="rounded=0;whiteSpace=wrap;html=1;" parent="1" vertex="1">
          <mxGeometry x="199" y="4880" width="160" height="70" as="geometry" />
        </mxCell>
        <mxCell id="YIY799zPQsZaPuYCzbY4-119" value="&lt;span style=&quot;font-size: 18px;&quot;&gt;Anggota Terdaftar&lt;/span&gt;" style="rounded=0;whiteSpace=wrap;html=1;" parent="1" vertex="1">
          <mxGeometry y="4880" width="160" height="70" as="geometry" />
        </mxCell>
        <mxCell id="YIY799zPQsZaPuYCzbY4-121" style="edgeStyle=none;curved=1;rounded=0;orthogonalLoop=1;jettySize=auto;html=1;exitX=1;exitY=0.5;exitDx=0;exitDy=0;entryX=0.75;entryY=1;entryDx=0;entryDy=0;fontSize=12;startSize=8;endSize=8;endArrow=none;startFill=0;" parent="1" source="YIY799zPQsZaPuYCzbY4-120" target="YIY799zPQsZaPuYCzbY4-67" edge="1">
          <mxGeometry relative="1" as="geometry" />
        </mxCell>
        <mxCell id="YIY799zPQsZaPuYCzbY4-122" style="edgeStyle=none;curved=1;rounded=0;orthogonalLoop=1;jettySize=auto;html=1;exitX=0.5;exitY=0;exitDx=0;exitDy=0;entryX=0.25;entryY=1;entryDx=0;entryDy=0;fontSize=12;startSize=8;endSize=8;endArrow=none;startFill=0;" parent="1" source="YIY799zPQsZaPuYCzbY4-120" target="YIY799zPQsZaPuYCzbY4-67" edge="1">
          <mxGeometry relative="1" as="geometry" />
        </mxCell>
        <mxCell id="YIY799zPQsZaPuYCzbY4-123" style="edgeStyle=none;curved=1;rounded=0;orthogonalLoop=1;jettySize=auto;html=1;exitX=0;exitY=1;exitDx=0;exitDy=0;entryX=0.5;entryY=0;entryDx=0;entryDy=0;fontSize=12;startSize=8;endSize=8;endArrow=none;startFill=0;" parent="1" source="YIY799zPQsZaPuYCzbY4-120" target="YIY799zPQsZaPuYCzbY4-119" edge="1">
          <mxGeometry relative="1" as="geometry" />
        </mxCell>
        <mxCell id="YIY799zPQsZaPuYCzbY4-124" style="edgeStyle=none;curved=1;rounded=0;orthogonalLoop=1;jettySize=auto;html=1;exitX=1;exitY=1;exitDx=0;exitDy=0;entryX=0.5;entryY=0;entryDx=0;entryDy=0;fontSize=12;startSize=8;endSize=8;endArrow=none;startFill=0;" parent="1" source="YIY799zPQsZaPuYCzbY4-120" target="YIY799zPQsZaPuYCzbY4-118" edge="1">
          <mxGeometry relative="1" as="geometry" />
        </mxCell>
        <mxCell id="YIY799zPQsZaPuYCzbY4-120" value="&lt;font style=&quot;font-size: 21px;&quot;&gt;d&lt;/font&gt;" style="ellipse;whiteSpace=wrap;html=1;aspect=fixed;" parent="1" vertex="1">
          <mxGeometry x="151" y="4740" width="60" height="60" as="geometry" />
        </mxCell>
        <mxCell id="amUvivS76SheUwqAYRxU-6" value="&lt;b&gt;&lt;font style=&quot;font-size: 16px;&quot;&gt;Class Diagram&lt;/font&gt;&lt;/b&gt;" style="text;html=1;align=center;verticalAlign=middle;resizable=0;points=[];autosize=1;strokeColor=none;fillColor=none;strokeWidth=8;" parent="1" vertex="1">
          <mxGeometry x="64" y="5410" width="130" height="30" as="geometry" />
        </mxCell>
        <mxCell id="amUvivS76SheUwqAYRxU-19" value="" style="endArrow=none;html=1;rounded=0;exitX=1;exitY=0.5;exitDx=0;exitDy=0;entryX=0;entryY=0.5;entryDx=0;entryDy=0;" parent="1" source="yB3i1mMbMBHToOypcdbI-87" edge="1">
          <mxGeometry width="50" height="50" relative="1" as="geometry">
            <mxPoint x="30" y="5335" as="sourcePoint" />
            <mxPoint x="199.5" y="5335" as="targetPoint" />
          </mxGeometry>
        </mxCell>
        <mxCell id="amUvivS76SheUwqAYRxU-20" value="Melihat" style="text;html=1;align=center;verticalAlign=middle;resizable=0;points=[];autosize=1;strokeColor=none;fillColor=none;" parent="1" vertex="1">
          <mxGeometry x="81.5" y="5290" width="60" height="30" as="geometry" />
        </mxCell>
        <mxCell id="amUvivS76SheUwqAYRxU-22" value="Menerima data&amp;nbsp;&lt;div&gt;Anggota&lt;/div&gt;" style="text;html=1;align=left;verticalAlign=middle;resizable=0;points=[];autosize=1;strokeColor=none;fillColor=none;" parent="1" vertex="1">
          <mxGeometry x="320" y="5420" width="110" height="40" as="geometry" />
        </mxCell>
        <mxCell id="amUvivS76SheUwqAYRxU-24" value="Input data" style="text;html=1;align=center;verticalAlign=middle;resizable=0;points=[];autosize=1;strokeColor=none;fillColor=none;" parent="1" vertex="1">
          <mxGeometry x="86.5" y="5660" width="80" height="30" as="geometry" />
        </mxCell>
        <mxCell id="amUvivS76SheUwqAYRxU-28" value="Anggota" style="swimlane;whiteSpace=wrap;html=1;" parent="1" vertex="1">
          <mxGeometry x="518" y="5290" width="160" height="1240" as="geometry" />
        </mxCell>
        <mxCell id="amUvivS76SheUwqAYRxU-29" value="" style="edgeStyle=orthogonalEdgeStyle;rounded=0;orthogonalLoop=1;jettySize=auto;html=1;" parent="amUvivS76SheUwqAYRxU-28" source="amUvivS76SheUwqAYRxU-30" target="amUvivS76SheUwqAYRxU-33" edge="1">
          <mxGeometry relative="1" as="geometry" />
        </mxCell>
        <mxCell id="amUvivS76SheUwqAYRxU-30" value="" style="ellipse;whiteSpace=wrap;html=1;aspect=fixed;fillColor=#330000;" parent="amUvivS76SheUwqAYRxU-28" vertex="1">
          <mxGeometry x="65" y="48" width="30" height="30" as="geometry" />
        </mxCell>
        <mxCell id="amUvivS76SheUwqAYRxU-31" value="Membuka Website&lt;div&gt;Perpustakaan&lt;/div&gt;" style="rounded=1;whiteSpace=wrap;html=1;" parent="amUvivS76SheUwqAYRxU-28" vertex="1">
          <mxGeometry x="25" y="100" width="110" height="40" as="geometry" />
        </mxCell>
        <mxCell id="amUvivS76SheUwqAYRxU-32" value="" style="edgeStyle=orthogonalEdgeStyle;rounded=0;orthogonalLoop=1;jettySize=auto;html=1;" parent="amUvivS76SheUwqAYRxU-28" source="amUvivS76SheUwqAYRxU-33" target="amUvivS76SheUwqAYRxU-36" edge="1">
          <mxGeometry relative="1" as="geometry" />
        </mxCell>
        <mxCell id="amUvivS76SheUwqAYRxU-33" value="Melakukan login" style="rounded=1;whiteSpace=wrap;html=1;" parent="amUvivS76SheUwqAYRxU-28" vertex="1">
          <mxGeometry x="25" y="180" width="110" height="40" as="geometry" />
        </mxCell>
        <mxCell id="amUvivS76SheUwqAYRxU-34" value="" style="edgeStyle=orthogonalEdgeStyle;rounded=0;orthogonalLoop=1;jettySize=auto;html=1;" parent="amUvivS76SheUwqAYRxU-28" source="amUvivS76SheUwqAYRxU-35" target="amUvivS76SheUwqAYRxU-37" edge="1">
          <mxGeometry relative="1" as="geometry" />
        </mxCell>
        <mxCell id="amUvivS76SheUwqAYRxU-35" value="&lt;font style=&quot;font-size: 11px;&quot;&gt;&amp;nbsp;berhasil&lt;/font&gt;&lt;div&gt;&lt;font style=&quot;font-size: 11px;&quot;&gt;&amp;nbsp;login ?&lt;/font&gt;&lt;/div&gt;" style="rhombus;whiteSpace=wrap;html=1;" parent="amUvivS76SheUwqAYRxU-28" vertex="1">
          <mxGeometry x="42.5" y="260" width="75" height="60" as="geometry" />
        </mxCell>
        <mxCell id="amUvivS76SheUwqAYRxU-36" value="username dan password salah" style="rounded=1;whiteSpace=wrap;html=1;" parent="amUvivS76SheUwqAYRxU-28" vertex="1">
          <mxGeometry x="25" y="340" width="110" height="40" as="geometry" />
        </mxCell>
        <mxCell id="amUvivS76SheUwqAYRxU-92" style="edgeStyle=orthogonalEdgeStyle;rounded=0;orthogonalLoop=1;jettySize=auto;html=1;entryX=0.5;entryY=0;entryDx=0;entryDy=0;" parent="amUvivS76SheUwqAYRxU-28" source="amUvivS76SheUwqAYRxU-37" target="amUvivS76SheUwqAYRxU-39" edge="1">
          <mxGeometry relative="1" as="geometry" />
        </mxCell>
        <mxCell id="amUvivS76SheUwqAYRxU-37" value="memilih menu&amp;nbsp;&lt;div&gt;Peminjaman Buku&lt;/div&gt;" style="rounded=1;whiteSpace=wrap;html=1;" parent="amUvivS76SheUwqAYRxU-28" vertex="1">
          <mxGeometry x="25" y="420" width="110" height="40" as="geometry" />
        </mxCell>
        <mxCell id="amUvivS76SheUwqAYRxU-38" value="" style="edgeStyle=orthogonalEdgeStyle;rounded=0;orthogonalLoop=1;jettySize=auto;html=1;" parent="amUvivS76SheUwqAYRxU-28" source="amUvivS76SheUwqAYRxU-39" target="amUvivS76SheUwqAYRxU-42" edge="1">
          <mxGeometry relative="1" as="geometry" />
        </mxCell>
        <mxCell id="amUvivS76SheUwqAYRxU-39" value="memilih menu isi Peminajamn dan buku" style="rounded=1;whiteSpace=wrap;html=1;" parent="amUvivS76SheUwqAYRxU-28" vertex="1">
          <mxGeometry x="25" y="500" width="110" height="40" as="geometry" />
        </mxCell>
        <mxCell id="amUvivS76SheUwqAYRxU-40" value="mengisi data diri" style="rounded=1;whiteSpace=wrap;html=1;" parent="amUvivS76SheUwqAYRxU-28" vertex="1">
          <mxGeometry x="25" y="580" width="110" height="40" as="geometry" />
        </mxCell>
        <mxCell id="amUvivS76SheUwqAYRxU-41" value="" style="edgeStyle=orthogonalEdgeStyle;rounded=0;orthogonalLoop=1;jettySize=auto;html=1;" parent="amUvivS76SheUwqAYRxU-28" source="amUvivS76SheUwqAYRxU-42" target="amUvivS76SheUwqAYRxU-43" edge="1">
          <mxGeometry relative="1" as="geometry" />
        </mxCell>
        <mxCell id="amUvivS76SheUwqAYRxU-42" value="mengisi form peminjaman" style="rounded=1;whiteSpace=wrap;html=1;" parent="amUvivS76SheUwqAYRxU-28" vertex="1">
          <mxGeometry x="26" y="660" width="110" height="40" as="geometry" />
        </mxCell>
        <mxCell id="amUvivS76SheUwqAYRxU-43" value="submit pinjaman" style="rounded=1;whiteSpace=wrap;html=1;" parent="amUvivS76SheUwqAYRxU-28" vertex="1">
          <mxGeometry x="26" y="730" width="110" height="40" as="geometry" />
        </mxCell>
        <mxCell id="amUvivS76SheUwqAYRxU-44" value="" style="edgeStyle=orthogonalEdgeStyle;rounded=0;orthogonalLoop=1;jettySize=auto;html=1;" parent="amUvivS76SheUwqAYRxU-28" source="amUvivS76SheUwqAYRxU-45" target="amUvivS76SheUwqAYRxU-46" edge="1">
          <mxGeometry relative="1" as="geometry" />
        </mxCell>
        <mxCell id="amUvivS76SheUwqAYRxU-90" style="edgeStyle=orthogonalEdgeStyle;rounded=0;orthogonalLoop=1;jettySize=auto;html=1;entryX=0;entryY=0.5;entryDx=0;entryDy=0;" parent="amUvivS76SheUwqAYRxU-28" source="amUvivS76SheUwqAYRxU-45" target="amUvivS76SheUwqAYRxU-42" edge="1">
          <mxGeometry relative="1" as="geometry">
            <Array as="points">
              <mxPoint x="10" y="865" />
              <mxPoint x="10" y="680" />
            </Array>
          </mxGeometry>
        </mxCell>
        <mxCell id="amUvivS76SheUwqAYRxU-45" value="&lt;font style=&quot;font-size: 9px;&quot;&gt;apakah data sudah benar?&lt;/font&gt;" style="rhombus;whiteSpace=wrap;html=1;" parent="amUvivS76SheUwqAYRxU-28" vertex="1">
          <mxGeometry x="42.5" y="830" width="77.5" height="70" as="geometry" />
        </mxCell>
        <mxCell id="amUvivS76SheUwqAYRxU-46" value="cetak berkas&lt;div&gt;peminjaman&lt;/div&gt;" style="rounded=1;whiteSpace=wrap;html=1;" parent="amUvivS76SheUwqAYRxU-28" vertex="1">
          <mxGeometry x="26" y="940" width="110" height="40" as="geometry" />
        </mxCell>
        <mxCell id="amUvivS76SheUwqAYRxU-47" value="" style="edgeStyle=orthogonalEdgeStyle;rounded=0;orthogonalLoop=1;jettySize=auto;html=1;" parent="amUvivS76SheUwqAYRxU-28" source="amUvivS76SheUwqAYRxU-48" target="amUvivS76SheUwqAYRxU-49" edge="1">
          <mxGeometry relative="1" as="geometry" />
        </mxCell>
        <mxCell id="amUvivS76SheUwqAYRxU-48" value="logout web perpus" style="rounded=1;whiteSpace=wrap;html=1;" parent="amUvivS76SheUwqAYRxU-28" vertex="1">
          <mxGeometry x="25" y="1080" width="110" height="40" as="geometry" />
        </mxCell>
        <mxCell id="amUvivS76SheUwqAYRxU-49" value="" style="ellipse;whiteSpace=wrap;html=1;aspect=fixed;fillColor=#F5F5F5;" parent="amUvivS76SheUwqAYRxU-28" vertex="1">
          <mxGeometry x="61.25" y="1150" width="40" height="40" as="geometry" />
        </mxCell>
        <mxCell id="amUvivS76SheUwqAYRxU-50" value="tidak" style="text;html=1;align=center;verticalAlign=middle;whiteSpace=wrap;rounded=0;" parent="amUvivS76SheUwqAYRxU-28" vertex="1">
          <mxGeometry y="840" width="60" height="30" as="geometry" />
        </mxCell>
        <mxCell id="amUvivS76SheUwqAYRxU-51" value="" style="ellipse;whiteSpace=wrap;html=1;aspect=fixed;fillColor=#0F0F0F;" parent="amUvivS76SheUwqAYRxU-28" vertex="1">
          <mxGeometry x="64.25" y="1153" width="34" height="34" as="geometry" />
        </mxCell>
        <mxCell id="amUvivS76SheUwqAYRxU-52" value="Petugas" style="swimlane;whiteSpace=wrap;html=1;" parent="1" vertex="1">
          <mxGeometry x="1005" y="5280" width="160" height="1260" as="geometry" />
        </mxCell>
        <mxCell id="amUvivS76SheUwqAYRxU-53" value="menampilkan halaman dashboard" style="rounded=1;whiteSpace=wrap;html=1;" parent="amUvivS76SheUwqAYRxU-52" vertex="1">
          <mxGeometry x="25" y="280" width="110" height="40" as="geometry" />
        </mxCell>
        <mxCell id="amUvivS76SheUwqAYRxU-54" value="Menampilkan halaman Peminjaman" style="rounded=1;whiteSpace=wrap;html=1;" parent="amUvivS76SheUwqAYRxU-52" vertex="1">
          <mxGeometry x="25" y="430" width="110" height="40" as="geometry" />
        </mxCell>
        <mxCell id="amUvivS76SheUwqAYRxU-55" value="" style="edgeStyle=orthogonalEdgeStyle;rounded=0;orthogonalLoop=1;jettySize=auto;html=1;" parent="amUvivS76SheUwqAYRxU-52" source="amUvivS76SheUwqAYRxU-57" target="amUvivS76SheUwqAYRxU-58" edge="1">
          <mxGeometry relative="1" as="geometry" />
        </mxCell>
        <mxCell id="amUvivS76SheUwqAYRxU-56" value="mengkonfirmasi data anggota" style="rounded=1;whiteSpace=wrap;html=1;" parent="amUvivS76SheUwqAYRxU-52" vertex="1">
          <mxGeometry x="25" y="590" width="110" height="40" as="geometry" />
        </mxCell>
        <mxCell id="amUvivS76SheUwqAYRxU-58" value="mengkonfirmasi data pinjaman" style="rounded=1;whiteSpace=wrap;html=1;" parent="amUvivS76SheUwqAYRxU-52" vertex="1">
          <mxGeometry x="25" y="740" width="110" height="40" as="geometry" />
        </mxCell>
        <mxCell id="amUvivS76SheUwqAYRxU-59" value="menampilkan halaman berkas peminjaman" style="rounded=1;whiteSpace=wrap;html=1;" parent="amUvivS76SheUwqAYRxU-52" vertex="1">
          <mxGeometry x="25" y="950" width="110" height="40" as="geometry" />
        </mxCell>
        <mxCell id="amUvivS76SheUwqAYRxU-88" value="" style="edgeStyle=orthogonalEdgeStyle;rounded=0;orthogonalLoop=1;jettySize=auto;html=1;" parent="amUvivS76SheUwqAYRxU-52" source="amUvivS76SheUwqAYRxU-56" target="amUvivS76SheUwqAYRxU-57" edge="1">
          <mxGeometry relative="1" as="geometry">
            <mxPoint x="1085" y="5900" as="sourcePoint" />
            <mxPoint x="1085" y="6040" as="targetPoint" />
          </mxGeometry>
        </mxCell>
        <mxCell id="amUvivS76SheUwqAYRxU-57" value="menampilkan halaman isi peminjaman" style="rounded=1;whiteSpace=wrap;html=1;" parent="amUvivS76SheUwqAYRxU-52" vertex="1">
          <mxGeometry x="25" y="670" width="110" height="40" as="geometry" />
        </mxCell>
        <mxCell id="amUvivS76SheUwqAYRxU-62" value="Database" style="swimlane;whiteSpace=wrap;html=1;" parent="1" vertex="1">
          <mxGeometry x="762.5" y="5280" width="160" height="1260" as="geometry" />
        </mxCell>
        <mxCell id="amUvivS76SheUwqAYRxU-63" value="menyimpan data pengguna" style="rounded=1;whiteSpace=wrap;html=1;" parent="amUvivS76SheUwqAYRxU-62" vertex="1">
          <mxGeometry x="25" y="280" width="110" height="40" as="geometry" />
        </mxCell>
        <mxCell id="amUvivS76SheUwqAYRxU-64" value="menyimpan data anggota" style="rounded=1;whiteSpace=wrap;html=1;" parent="amUvivS76SheUwqAYRxU-62" vertex="1">
          <mxGeometry x="30" y="590" width="110" height="40" as="geometry" />
        </mxCell>
        <mxCell id="amUvivS76SheUwqAYRxU-65" value="menyimpan data isi pinjaman" style="rounded=1;whiteSpace=wrap;html=1;" parent="amUvivS76SheUwqAYRxU-62" vertex="1">
          <mxGeometry x="25" y="740" width="110" height="40" as="geometry" />
        </mxCell>
        <mxCell id="amUvivS76SheUwqAYRxU-66" value="menyimpan data cetak peminjaman" style="rounded=1;whiteSpace=wrap;html=1;" parent="amUvivS76SheUwqAYRxU-62" vertex="1">
          <mxGeometry x="30" y="950" width="110" height="40" as="geometry" />
        </mxCell>
        <mxCell id="amUvivS76SheUwqAYRxU-67" value="" style="endArrow=classic;html=1;rounded=0;exitX=1;exitY=0.5;exitDx=0;exitDy=0;entryX=0;entryY=0.5;entryDx=0;entryDy=0;" parent="1" source="amUvivS76SheUwqAYRxU-35" target="amUvivS76SheUwqAYRxU-63" edge="1">
          <mxGeometry width="50" height="50" relative="1" as="geometry">
            <mxPoint x="882.5" y="5690" as="sourcePoint" />
            <mxPoint x="932.5" y="5640" as="targetPoint" />
          </mxGeometry>
        </mxCell>
        <mxCell id="amUvivS76SheUwqAYRxU-69" value="" style="endArrow=classic;html=1;rounded=0;entryX=1;entryY=0.5;entryDx=0;entryDy=0;exitX=0;exitY=0.5;exitDx=0;exitDy=0;" parent="1" source="amUvivS76SheUwqAYRxU-57" target="amUvivS76SheUwqAYRxU-42" edge="1">
          <mxGeometry width="50" height="50" relative="1" as="geometry">
            <mxPoint x="1022.5" y="5970" as="sourcePoint" />
            <mxPoint x="932.5" y="5910" as="targetPoint" />
          </mxGeometry>
        </mxCell>
        <mxCell id="amUvivS76SheUwqAYRxU-70" value="" style="endArrow=classic;html=1;rounded=0;exitX=1;exitY=0.5;exitDx=0;exitDy=0;entryX=0;entryY=0.5;entryDx=0;entryDy=0;" parent="1" source="amUvivS76SheUwqAYRxU-43" target="amUvivS76SheUwqAYRxU-65" edge="1">
          <mxGeometry width="50" height="50" relative="1" as="geometry">
            <mxPoint x="882.5" y="6030" as="sourcePoint" />
            <mxPoint x="932.5" y="5980" as="targetPoint" />
          </mxGeometry>
        </mxCell>
        <mxCell id="amUvivS76SheUwqAYRxU-71" value="" style="endArrow=classic;html=1;rounded=0;exitX=1;exitY=0.5;exitDx=0;exitDy=0;entryX=0;entryY=0.5;entryDx=0;entryDy=0;" parent="1" source="amUvivS76SheUwqAYRxU-65" target="amUvivS76SheUwqAYRxU-58" edge="1">
          <mxGeometry width="50" height="50" relative="1" as="geometry">
            <mxPoint x="922.5" y="6070" as="sourcePoint" />
            <mxPoint x="972.5" y="6020" as="targetPoint" />
          </mxGeometry>
        </mxCell>
        <mxCell id="amUvivS76SheUwqAYRxU-73" value="" style="endArrow=none;html=1;rounded=0;entryX=1;entryY=0.5;entryDx=0;entryDy=0;exitX=0.457;exitY=1.023;exitDx=0;exitDy=0;exitPerimeter=0;" parent="1" source="amUvivS76SheUwqAYRxU-53" target="amUvivS76SheUwqAYRxU-36" edge="1">
          <mxGeometry width="50" height="50" relative="1" as="geometry">
            <mxPoint x="1080" y="5640" as="sourcePoint" />
            <mxPoint x="1092.5" y="5610" as="targetPoint" />
            <Array as="points">
              <mxPoint x="1080" y="5650" />
              <mxPoint x="870" y="5650" />
            </Array>
          </mxGeometry>
        </mxCell>
        <mxCell id="amUvivS76SheUwqAYRxU-80" value="" style="endArrow=classic;html=1;rounded=0;entryX=0;entryY=0.5;entryDx=0;entryDy=0;" parent="1" source="amUvivS76SheUwqAYRxU-46" target="amUvivS76SheUwqAYRxU-66" edge="1">
          <mxGeometry width="50" height="50" relative="1" as="geometry">
            <mxPoint x="662.5" y="6250" as="sourcePoint" />
            <mxPoint x="712.5" y="6200" as="targetPoint" />
          </mxGeometry>
        </mxCell>
        <mxCell id="amUvivS76SheUwqAYRxU-81" value="" style="endArrow=classic;html=1;rounded=0;entryX=0;entryY=0.5;entryDx=0;entryDy=0;exitX=1;exitY=0.5;exitDx=0;exitDy=0;" parent="1" source="amUvivS76SheUwqAYRxU-66" target="amUvivS76SheUwqAYRxU-59" edge="1">
          <mxGeometry width="50" height="50" relative="1" as="geometry">
            <mxPoint x="668.5" y="6260" as="sourcePoint" />
            <mxPoint x="802.5" y="6260" as="targetPoint" />
          </mxGeometry>
        </mxCell>
        <mxCell id="amUvivS76SheUwqAYRxU-82" value="" style="endArrow=classic;html=1;rounded=0;exitX=1;exitY=0.5;exitDx=0;exitDy=0;entryX=0;entryY=0.5;entryDx=0;entryDy=0;" parent="1" source="amUvivS76SheUwqAYRxU-40" target="amUvivS76SheUwqAYRxU-64" edge="1">
          <mxGeometry width="50" height="50" relative="1" as="geometry">
            <mxPoint x="682.5" y="5910" as="sourcePoint" />
            <mxPoint x="732.5" y="5860" as="targetPoint" />
          </mxGeometry>
        </mxCell>
        <mxCell id="amUvivS76SheUwqAYRxU-83" value="" style="endArrow=classic;html=1;rounded=0;entryX=0;entryY=0.5;entryDx=0;entryDy=0;exitX=1;exitY=0.5;exitDx=0;exitDy=0;" parent="1" source="amUvivS76SheUwqAYRxU-64" target="amUvivS76SheUwqAYRxU-56" edge="1">
          <mxGeometry width="50" height="50" relative="1" as="geometry">
            <mxPoint x="712.5" y="5880" as="sourcePoint" />
            <mxPoint x="762.5" y="5830" as="targetPoint" />
          </mxGeometry>
        </mxCell>
        <mxCell id="amUvivS76SheUwqAYRxU-84" value="" style="endArrow=classic;html=1;rounded=0;exitX=1;exitY=0.5;exitDx=0;exitDy=0;" parent="1" source="amUvivS76SheUwqAYRxU-37" target="amUvivS76SheUwqAYRxU-54" edge="1">
          <mxGeometry width="50" height="50" relative="1" as="geometry">
            <mxPoint x="662.5" y="5730" as="sourcePoint" />
            <mxPoint x="762.5" y="5700" as="targetPoint" />
          </mxGeometry>
        </mxCell>
        <mxCell id="amUvivS76SheUwqAYRxU-91" style="edgeStyle=orthogonalEdgeStyle;rounded=0;orthogonalLoop=1;jettySize=auto;html=1;entryX=0;entryY=0.5;entryDx=0;entryDy=0;" parent="1" source="amUvivS76SheUwqAYRxU-63" target="amUvivS76SheUwqAYRxU-53" edge="1">
          <mxGeometry relative="1" as="geometry" />
        </mxCell>
        <mxCell id="amUvivS76SheUwqAYRxU-93" style="edgeStyle=orthogonalEdgeStyle;rounded=0;orthogonalLoop=1;jettySize=auto;html=1;entryX=0.5;entryY=0;entryDx=0;entryDy=0;" parent="1" source="amUvivS76SheUwqAYRxU-58" target="amUvivS76SheUwqAYRxU-45" edge="1">
          <mxGeometry relative="1" as="geometry">
            <Array as="points">
              <mxPoint x="1085" y="6090" />
              <mxPoint x="601" y="6090" />
            </Array>
          </mxGeometry>
        </mxCell>
        <mxCell id="amUvivS76SheUwqAYRxU-94" style="edgeStyle=orthogonalEdgeStyle;rounded=0;orthogonalLoop=1;jettySize=auto;html=1;entryX=0.5;entryY=0;entryDx=0;entryDy=0;" parent="1" source="amUvivS76SheUwqAYRxU-59" target="amUvivS76SheUwqAYRxU-48" edge="1">
          <mxGeometry relative="1" as="geometry">
            <Array as="points">
              <mxPoint x="1085" y="6340" />
              <mxPoint x="601" y="6340" />
              <mxPoint x="601" y="6370" />
            </Array>
          </mxGeometry>
        </mxCell>
        <mxCell id="yB3i1mMbMBHToOypcdbI-12" value="Mahasiswa" style="swimlane;fontStyle=0;childLayout=stackLayout;horizontal=1;startSize=30;horizontalStack=0;resizeParent=1;resizeParentMax=0;resizeLast=0;collapsible=1;marginBottom=0;whiteSpace=wrap;html=1;" parent="1" vertex="1">
          <mxGeometry x="-140" y="5940" width="160" height="150" as="geometry" />
        </mxCell>
        <mxCell id="yB3i1mMbMBHToOypcdbI-13" value="nama" style="text;strokeColor=none;fillColor=none;align=left;verticalAlign=middle;spacingLeft=4;spacingRight=4;overflow=hidden;points=[[0,0.5],[1,0.5]];portConstraint=eastwest;rotatable=0;whiteSpace=wrap;html=1;" parent="yB3i1mMbMBHToOypcdbI-12" vertex="1">
          <mxGeometry y="30" width="160" height="30" as="geometry" />
        </mxCell>
        <mxCell id="yB3i1mMbMBHToOypcdbI-14" value="id_npm" style="text;strokeColor=none;fillColor=none;align=left;verticalAlign=middle;spacingLeft=4;spacingRight=4;overflow=hidden;points=[[0,0.5],[1,0.5]];portConstraint=eastwest;rotatable=0;whiteSpace=wrap;html=1;" parent="yB3i1mMbMBHToOypcdbI-12" vertex="1">
          <mxGeometry y="60" width="160" height="30" as="geometry" />
        </mxCell>
        <mxCell id="yB3i1mMbMBHToOypcdbI-15" value="jurusan" style="text;strokeColor=none;fillColor=none;align=left;verticalAlign=middle;spacingLeft=4;spacingRight=4;overflow=hidden;points=[[0,0.5],[1,0.5]];portConstraint=eastwest;rotatable=0;whiteSpace=wrap;html=1;" parent="yB3i1mMbMBHToOypcdbI-12" vertex="1">
          <mxGeometry y="90" width="160" height="30" as="geometry" />
        </mxCell>
        <mxCell id="yB3i1mMbMBHToOypcdbI-16" value="fakultas" style="text;strokeColor=none;fillColor=none;align=left;verticalAlign=middle;spacingLeft=4;spacingRight=4;overflow=hidden;points=[[0,0.5],[1,0.5]];portConstraint=eastwest;rotatable=0;whiteSpace=wrap;html=1;" parent="yB3i1mMbMBHToOypcdbI-12" vertex="1">
          <mxGeometry y="120" width="160" height="30" as="geometry" />
        </mxCell>
        <mxCell id="yB3i1mMbMBHToOypcdbI-17" value="&lt;b&gt;&lt;font style=&quot;font-size: 16px;&quot;&gt;Class Diagram&lt;/font&gt;&lt;/b&gt;" style="text;html=1;align=center;verticalAlign=middle;resizable=0;points=[];autosize=1;strokeColor=none;fillColor=none;strokeWidth=8;" parent="1" vertex="1">
          <mxGeometry x="36.5" y="5890" width="130" height="30" as="geometry" />
        </mxCell>
        <mxCell id="yB3i1mMbMBHToOypcdbI-18" value="Admin" style="swimlane;fontStyle=0;childLayout=stackLayout;horizontal=1;startSize=30;horizontalStack=0;resizeParent=1;resizeParentMax=0;resizeLast=0;collapsible=1;marginBottom=0;whiteSpace=wrap;html=1;" parent="1" vertex="1">
          <mxGeometry x="189.5" y="5940" width="160" height="90" as="geometry" />
        </mxCell>
        <mxCell id="yB3i1mMbMBHToOypcdbI-19" value="user.id" style="text;strokeColor=none;fillColor=none;align=left;verticalAlign=middle;spacingLeft=4;spacingRight=4;overflow=hidden;points=[[0,0.5],[1,0.5]];portConstraint=eastwest;rotatable=0;whiteSpace=wrap;html=1;" parent="yB3i1mMbMBHToOypcdbI-18" vertex="1">
          <mxGeometry y="30" width="160" height="30" as="geometry" />
        </mxCell>
        <mxCell id="yB3i1mMbMBHToOypcdbI-20" value="password" style="text;strokeColor=none;fillColor=none;align=left;verticalAlign=middle;spacingLeft=4;spacingRight=4;overflow=hidden;points=[[0,0.5],[1,0.5]];portConstraint=eastwest;rotatable=0;whiteSpace=wrap;html=1;" parent="yB3i1mMbMBHToOypcdbI-18" vertex="1">
          <mxGeometry y="60" width="160" height="30" as="geometry" />
        </mxCell>
        <mxCell id="yB3i1mMbMBHToOypcdbI-21" value="Database" style="swimlane;fontStyle=0;childLayout=stackLayout;horizontal=1;startSize=30;horizontalStack=0;resizeParent=1;resizeParentMax=0;resizeLast=0;collapsible=1;marginBottom=0;whiteSpace=wrap;html=1;" parent="1" vertex="1">
          <mxGeometry x="41" y="6140" width="160" height="270" as="geometry" />
        </mxCell>
        <mxCell id="yB3i1mMbMBHToOypcdbI-22" value="id_npm" style="text;strokeColor=none;fillColor=none;align=left;verticalAlign=middle;spacingLeft=4;spacingRight=4;overflow=hidden;points=[[0,0.5],[1,0.5]];portConstraint=eastwest;rotatable=0;whiteSpace=wrap;html=1;" parent="yB3i1mMbMBHToOypcdbI-21" vertex="1">
          <mxGeometry y="30" width="160" height="30" as="geometry" />
        </mxCell>
        <mxCell id="yB3i1mMbMBHToOypcdbI-23" value="kelas" style="text;strokeColor=none;fillColor=none;align=left;verticalAlign=middle;spacingLeft=4;spacingRight=4;overflow=hidden;points=[[0,0.5],[1,0.5]];portConstraint=eastwest;rotatable=0;whiteSpace=wrap;html=1;" parent="yB3i1mMbMBHToOypcdbI-21" vertex="1">
          <mxGeometry y="60" width="160" height="30" as="geometry" />
        </mxCell>
        <mxCell id="yB3i1mMbMBHToOypcdbI-24" value="tahun_ajaran" style="text;strokeColor=none;fillColor=none;align=left;verticalAlign=middle;spacingLeft=4;spacingRight=4;overflow=hidden;points=[[0,0.5],[1,0.5]];portConstraint=eastwest;rotatable=0;whiteSpace=wrap;html=1;" parent="yB3i1mMbMBHToOypcdbI-21" vertex="1">
          <mxGeometry y="90" width="160" height="30" as="geometry" />
        </mxCell>
        <mxCell id="yB3i1mMbMBHToOypcdbI-25" value="jumlah_semester" style="text;strokeColor=none;fillColor=none;align=left;verticalAlign=middle;spacingLeft=4;spacingRight=4;overflow=hidden;points=[[0,0.5],[1,0.5]];portConstraint=eastwest;rotatable=0;whiteSpace=wrap;html=1;" parent="yB3i1mMbMBHToOypcdbI-21" vertex="1">
          <mxGeometry y="120" width="160" height="30" as="geometry" />
        </mxCell>
        <mxCell id="yB3i1mMbMBHToOypcdbI-26" value="kd_mk" style="text;strokeColor=none;fillColor=none;align=left;verticalAlign=middle;spacingLeft=4;spacingRight=4;overflow=hidden;points=[[0,0.5],[1,0.5]];portConstraint=eastwest;rotatable=0;whiteSpace=wrap;html=1;" parent="yB3i1mMbMBHToOypcdbI-21" vertex="1">
          <mxGeometry y="150" width="160" height="30" as="geometry" />
        </mxCell>
        <mxCell id="yB3i1mMbMBHToOypcdbI-27" value="nama_mk" style="text;strokeColor=none;fillColor=none;align=left;verticalAlign=middle;spacingLeft=4;spacingRight=4;overflow=hidden;points=[[0,0.5],[1,0.5]];portConstraint=eastwest;rotatable=0;whiteSpace=wrap;html=1;" parent="yB3i1mMbMBHToOypcdbI-21" vertex="1">
          <mxGeometry y="180" width="160" height="30" as="geometry" />
        </mxCell>
        <mxCell id="yB3i1mMbMBHToOypcdbI-28" value="jenis_mk" style="text;strokeColor=none;fillColor=none;align=left;verticalAlign=middle;spacingLeft=4;spacingRight=4;overflow=hidden;points=[[0,0.5],[1,0.5]];portConstraint=eastwest;rotatable=0;whiteSpace=wrap;html=1;" parent="yB3i1mMbMBHToOypcdbI-21" vertex="1">
          <mxGeometry y="210" width="160" height="30" as="geometry" />
        </mxCell>
        <mxCell id="yB3i1mMbMBHToOypcdbI-29" value="jumlah_sks" style="text;strokeColor=none;fillColor=none;align=left;verticalAlign=middle;spacingLeft=4;spacingRight=4;overflow=hidden;points=[[0,0.5],[1,0.5]];portConstraint=eastwest;rotatable=0;whiteSpace=wrap;html=1;" parent="yB3i1mMbMBHToOypcdbI-21" vertex="1">
          <mxGeometry y="240" width="160" height="30" as="geometry" />
        </mxCell>
        <mxCell id="yB3i1mMbMBHToOypcdbI-30" value="" style="endArrow=none;html=1;rounded=0;exitX=1;exitY=0.5;exitDx=0;exitDy=0;entryX=0;entryY=0.5;entryDx=0;entryDy=0;" parent="1" source="yB3i1mMbMBHToOypcdbI-14" target="yB3i1mMbMBHToOypcdbI-20" edge="1">
          <mxGeometry width="50" height="50" relative="1" as="geometry">
            <mxPoint x="90" y="6090" as="sourcePoint" />
            <mxPoint x="140" y="6040" as="targetPoint" />
          </mxGeometry>
        </mxCell>
        <mxCell id="yB3i1mMbMBHToOypcdbI-31" value="Melihat" style="text;html=1;align=center;verticalAlign=middle;resizable=0;points=[];autosize=1;strokeColor=none;fillColor=none;" parent="1" vertex="1">
          <mxGeometry x="71.5" y="5970" width="60" height="30" as="geometry" />
        </mxCell>
        <mxCell id="yB3i1mMbMBHToOypcdbI-32" value="" style="endArrow=none;html=1;rounded=0;entryX=1;entryY=0.5;entryDx=0;entryDy=0;exitX=1;exitY=0.5;exitDx=0;exitDy=0;edgeStyle=orthogonalEdgeStyle;" parent="1" source="yB3i1mMbMBHToOypcdbI-23" target="yB3i1mMbMBHToOypcdbI-20" edge="1">
          <mxGeometry width="50" height="50" relative="1" as="geometry">
            <mxPoint x="180" y="6150" as="sourcePoint" />
            <mxPoint x="337.76" y="6060.54" as="targetPoint" />
            <Array as="points">
              <mxPoint x="201" y="6255" />
              <mxPoint x="300" y="6255" />
              <mxPoint x="300" y="6030" />
              <mxPoint x="350" y="6030" />
            </Array>
          </mxGeometry>
        </mxCell>
        <mxCell id="yB3i1mMbMBHToOypcdbI-33" value="Menerima data&amp;nbsp;&lt;div&gt;mahasiswa&lt;/div&gt;" style="text;html=1;align=left;verticalAlign=middle;resizable=0;points=[];autosize=1;strokeColor=none;fillColor=none;" parent="1" vertex="1">
          <mxGeometry x="310" y="6100" width="110" height="40" as="geometry" />
        </mxCell>
        <mxCell id="yB3i1mMbMBHToOypcdbI-34" value="" style="endArrow=none;html=1;rounded=0;entryX=0.481;entryY=1.045;entryDx=0;entryDy=0;entryPerimeter=0;exitX=0;exitY=0.5;exitDx=0;exitDy=0;edgeStyle=orthogonalEdgeStyle;" parent="1" source="yB3i1mMbMBHToOypcdbI-23" target="yB3i1mMbMBHToOypcdbI-16" edge="1">
          <mxGeometry width="50" height="50" relative="1" as="geometry">
            <mxPoint x="-10" y="6200" as="sourcePoint" />
            <mxPoint x="40" y="6150" as="targetPoint" />
            <Array as="points">
              <mxPoint x="-63" y="6255" />
            </Array>
          </mxGeometry>
        </mxCell>
        <mxCell id="yB3i1mMbMBHToOypcdbI-35" value="Input data" style="text;html=1;align=center;verticalAlign=middle;resizable=0;points=[];autosize=1;strokeColor=none;fillColor=none;" parent="1" vertex="1">
          <mxGeometry x="-150" y="6158" width="80" height="30" as="geometry" />
        </mxCell>
        <mxCell id="yB3i1mMbMBHToOypcdbI-64" value="Database" style="swimlane;fontStyle=0;childLayout=stackLayout;horizontal=1;startSize=30;horizontalStack=0;resizeParent=1;resizeParentMax=0;resizeLast=0;collapsible=1;marginBottom=0;whiteSpace=wrap;html=1;" parent="1" vertex="1">
          <mxGeometry x="201" y="5520" width="140" height="240" as="geometry" />
        </mxCell>
        <mxCell id="yB3i1mMbMBHToOypcdbI-65" value="id_peminjaman" style="text;strokeColor=none;fillColor=none;align=left;verticalAlign=middle;spacingLeft=4;spacingRight=4;overflow=hidden;points=[[0,0.5],[1,0.5]];portConstraint=eastwest;rotatable=0;whiteSpace=wrap;html=1;" parent="yB3i1mMbMBHToOypcdbI-64" vertex="1">
          <mxGeometry y="30" width="140" height="30" as="geometry" />
        </mxCell>
        <mxCell id="yB3i1mMbMBHToOypcdbI-66" value="id_anggota" style="text;strokeColor=none;fillColor=none;align=left;verticalAlign=middle;spacingLeft=4;spacingRight=4;overflow=hidden;points=[[0,0.5],[1,0.5]];portConstraint=eastwest;rotatable=0;whiteSpace=wrap;html=1;" parent="yB3i1mMbMBHToOypcdbI-64" vertex="1">
          <mxGeometry y="60" width="140" height="30" as="geometry" />
        </mxCell>
        <mxCell id="yB3i1mMbMBHToOypcdbI-67" value="id_buku" style="text;strokeColor=none;fillColor=none;align=left;verticalAlign=middle;spacingLeft=4;spacingRight=4;overflow=hidden;points=[[0,0.5],[1,0.5]];portConstraint=eastwest;rotatable=0;whiteSpace=wrap;html=1;" parent="yB3i1mMbMBHToOypcdbI-64" vertex="1">
          <mxGeometry y="90" width="140" height="30" as="geometry" />
        </mxCell>
        <mxCell id="yB3i1mMbMBHToOypcdbI-68" value="tanggal_pinjam" style="text;strokeColor=none;fillColor=none;align=left;verticalAlign=middle;spacingLeft=4;spacingRight=4;overflow=hidden;points=[[0,0.5],[1,0.5]];portConstraint=eastwest;rotatable=0;whiteSpace=wrap;html=1;" parent="yB3i1mMbMBHToOypcdbI-64" vertex="1">
          <mxGeometry y="120" width="140" height="30" as="geometry" />
        </mxCell>
        <mxCell id="yB3i1mMbMBHToOypcdbI-69" value="tanggal_kembali" style="text;strokeColor=none;fillColor=none;align=left;verticalAlign=middle;spacingLeft=4;spacingRight=4;overflow=hidden;points=[[0,0.5],[1,0.5]];portConstraint=eastwest;rotatable=0;whiteSpace=wrap;html=1;" parent="yB3i1mMbMBHToOypcdbI-64" vertex="1">
          <mxGeometry y="150" width="140" height="30" as="geometry" />
        </mxCell>
        <mxCell id="yB3i1mMbMBHToOypcdbI-70" value="&lt;div&gt;status&lt;/div&gt;" style="text;strokeColor=none;fillColor=none;align=left;verticalAlign=middle;spacingLeft=4;spacingRight=4;overflow=hidden;points=[[0,0.5],[1,0.5]];portConstraint=eastwest;rotatable=0;whiteSpace=wrap;html=1;" parent="yB3i1mMbMBHToOypcdbI-64" vertex="1">
          <mxGeometry y="180" width="140" height="30" as="geometry" />
        </mxCell>
        <mxCell id="yB3i1mMbMBHToOypcdbI-71" value="id_petugas" style="text;strokeColor=none;fillColor=none;align=left;verticalAlign=middle;spacingLeft=4;spacingRight=4;overflow=hidden;points=[[0,0.5],[1,0.5]];portConstraint=eastwest;rotatable=0;whiteSpace=wrap;html=1;" parent="yB3i1mMbMBHToOypcdbI-64" vertex="1">
          <mxGeometry y="210" width="140" height="30" as="geometry" />
        </mxCell>
        <mxCell id="yB3i1mMbMBHToOypcdbI-72" value="Petugas" style="swimlane;fontStyle=0;childLayout=stackLayout;horizontal=1;startSize=30;horizontalStack=0;resizeParent=1;resizeParentMax=0;resizeLast=0;collapsible=1;marginBottom=0;whiteSpace=wrap;html=1;" parent="1" vertex="1">
          <mxGeometry x="201" y="5230" width="140" height="150" as="geometry" />
        </mxCell>
        <mxCell id="yB3i1mMbMBHToOypcdbI-73" value="id_petugas" style="text;strokeColor=none;fillColor=none;align=left;verticalAlign=middle;spacingLeft=4;spacingRight=4;overflow=hidden;points=[[0,0.5],[1,0.5]];portConstraint=eastwest;rotatable=0;whiteSpace=wrap;html=1;" parent="yB3i1mMbMBHToOypcdbI-72" vertex="1">
          <mxGeometry y="30" width="140" height="30" as="geometry" />
        </mxCell>
        <mxCell id="yB3i1mMbMBHToOypcdbI-74" value="nama_petugas" style="text;strokeColor=none;fillColor=none;align=left;verticalAlign=middle;spacingLeft=4;spacingRight=4;overflow=hidden;points=[[0,0.5],[1,0.5]];portConstraint=eastwest;rotatable=0;whiteSpace=wrap;html=1;" parent="yB3i1mMbMBHToOypcdbI-72" vertex="1">
          <mxGeometry y="60" width="140" height="30" as="geometry" />
        </mxCell>
        <mxCell id="yB3i1mMbMBHToOypcdbI-75" value="username" style="text;strokeColor=none;fillColor=none;align=left;verticalAlign=middle;spacingLeft=4;spacingRight=4;overflow=hidden;points=[[0,0.5],[1,0.5]];portConstraint=eastwest;rotatable=0;whiteSpace=wrap;html=1;" parent="yB3i1mMbMBHToOypcdbI-72" vertex="1">
          <mxGeometry y="90" width="140" height="30" as="geometry" />
        </mxCell>
        <mxCell id="yB3i1mMbMBHToOypcdbI-76" value="password" style="text;strokeColor=none;fillColor=none;align=left;verticalAlign=middle;spacingLeft=4;spacingRight=4;overflow=hidden;points=[[0,0.5],[1,0.5]];portConstraint=eastwest;rotatable=0;whiteSpace=wrap;html=1;" parent="yB3i1mMbMBHToOypcdbI-72" vertex="1">
          <mxGeometry y="120" width="140" height="30" as="geometry" />
        </mxCell>
        <mxCell id="yB3i1mMbMBHToOypcdbI-77" value="Buku" style="swimlane;fontStyle=0;childLayout=stackLayout;horizontal=1;startSize=30;horizontalStack=0;resizeParent=1;resizeParentMax=0;resizeLast=0;collapsible=1;marginBottom=0;whiteSpace=wrap;html=1;" parent="1" vertex="1">
          <mxGeometry x="-103.5" y="5535" width="140" height="210" as="geometry" />
        </mxCell>
        <mxCell id="yB3i1mMbMBHToOypcdbI-78" value="id_buku" style="text;strokeColor=none;fillColor=none;align=left;verticalAlign=middle;spacingLeft=4;spacingRight=4;overflow=hidden;points=[[0,0.5],[1,0.5]];portConstraint=eastwest;rotatable=0;whiteSpace=wrap;html=1;" parent="yB3i1mMbMBHToOypcdbI-77" vertex="1">
          <mxGeometry y="30" width="140" height="30" as="geometry" />
        </mxCell>
        <mxCell id="yB3i1mMbMBHToOypcdbI-79" value="judul" style="text;strokeColor=none;fillColor=none;align=left;verticalAlign=middle;spacingLeft=4;spacingRight=4;overflow=hidden;points=[[0,0.5],[1,0.5]];portConstraint=eastwest;rotatable=0;whiteSpace=wrap;html=1;" parent="yB3i1mMbMBHToOypcdbI-77" vertex="1">
          <mxGeometry y="60" width="140" height="30" as="geometry" />
        </mxCell>
        <mxCell id="yB3i1mMbMBHToOypcdbI-80" value="penulis" style="text;strokeColor=none;fillColor=none;align=left;verticalAlign=middle;spacingLeft=4;spacingRight=4;overflow=hidden;points=[[0,0.5],[1,0.5]];portConstraint=eastwest;rotatable=0;whiteSpace=wrap;html=1;" parent="yB3i1mMbMBHToOypcdbI-77" vertex="1">
          <mxGeometry y="90" width="140" height="30" as="geometry" />
        </mxCell>
        <mxCell id="yB3i1mMbMBHToOypcdbI-81" value="tahun_terbit" style="text;strokeColor=none;fillColor=none;align=left;verticalAlign=middle;spacingLeft=4;spacingRight=4;overflow=hidden;points=[[0,0.5],[1,0.5]];portConstraint=eastwest;rotatable=0;whiteSpace=wrap;html=1;" parent="yB3i1mMbMBHToOypcdbI-77" vertex="1">
          <mxGeometry y="120" width="140" height="30" as="geometry" />
        </mxCell>
        <mxCell id="yB3i1mMbMBHToOypcdbI-82" value="stok" style="text;strokeColor=none;fillColor=none;align=left;verticalAlign=middle;spacingLeft=4;spacingRight=4;overflow=hidden;points=[[0,0.5],[1,0.5]];portConstraint=eastwest;rotatable=0;whiteSpace=wrap;html=1;" parent="yB3i1mMbMBHToOypcdbI-77" vertex="1">
          <mxGeometry y="150" width="140" height="30" as="geometry" />
        </mxCell>
        <mxCell id="yB3i1mMbMBHToOypcdbI-83" value="id_kategori" style="text;strokeColor=none;fillColor=none;align=left;verticalAlign=middle;spacingLeft=4;spacingRight=4;overflow=hidden;points=[[0,0.5],[1,0.5]];portConstraint=eastwest;rotatable=0;whiteSpace=wrap;html=1;" parent="yB3i1mMbMBHToOypcdbI-77" vertex="1">
          <mxGeometry y="180" width="140" height="30" as="geometry" />
        </mxCell>
        <mxCell id="yB3i1mMbMBHToOypcdbI-94" style="edgeStyle=none;curved=1;rounded=0;orthogonalLoop=1;jettySize=auto;html=1;entryX=0.5;entryY=0;entryDx=0;entryDy=0;fontSize=12;startSize=8;endSize=8;" parent="1" source="yB3i1mMbMBHToOypcdbI-84" target="yB3i1mMbMBHToOypcdbI-77" edge="1">
          <mxGeometry relative="1" as="geometry" />
        </mxCell>
        <mxCell id="yB3i1mMbMBHToOypcdbI-84" value="Anggota" style="swimlane;fontStyle=0;childLayout=stackLayout;horizontal=1;startSize=30;horizontalStack=0;resizeParent=1;resizeParentMax=0;resizeLast=0;collapsible=1;marginBottom=0;whiteSpace=wrap;html=1;" parent="1" vertex="1">
          <mxGeometry x="-103.5" y="5230" width="140" height="180" as="geometry" />
        </mxCell>
        <mxCell id="yB3i1mMbMBHToOypcdbI-85" value="id_anggota" style="text;strokeColor=none;fillColor=none;align=left;verticalAlign=middle;spacingLeft=4;spacingRight=4;overflow=hidden;points=[[0,0.5],[1,0.5]];portConstraint=eastwest;rotatable=0;whiteSpace=wrap;html=1;" parent="yB3i1mMbMBHToOypcdbI-84" vertex="1">
          <mxGeometry y="30" width="140" height="30" as="geometry" />
        </mxCell>
        <mxCell id="yB3i1mMbMBHToOypcdbI-86" value="nama" style="text;strokeColor=none;fillColor=none;align=left;verticalAlign=middle;spacingLeft=4;spacingRight=4;overflow=hidden;points=[[0,0.5],[1,0.5]];portConstraint=eastwest;rotatable=0;whiteSpace=wrap;html=1;" parent="yB3i1mMbMBHToOypcdbI-84" vertex="1">
          <mxGeometry y="60" width="140" height="30" as="geometry" />
        </mxCell>
        <mxCell id="yB3i1mMbMBHToOypcdbI-87" value="alamat" style="text;strokeColor=none;fillColor=none;align=left;verticalAlign=middle;spacingLeft=4;spacingRight=4;overflow=hidden;points=[[0,0.5],[1,0.5]];portConstraint=eastwest;rotatable=0;whiteSpace=wrap;html=1;" parent="yB3i1mMbMBHToOypcdbI-84" vertex="1">
          <mxGeometry y="90" width="140" height="30" as="geometry" />
        </mxCell>
        <mxCell id="yB3i1mMbMBHToOypcdbI-88" value="email" style="text;strokeColor=none;fillColor=none;align=left;verticalAlign=middle;spacingLeft=4;spacingRight=4;overflow=hidden;points=[[0,0.5],[1,0.5]];portConstraint=eastwest;rotatable=0;whiteSpace=wrap;html=1;" parent="yB3i1mMbMBHToOypcdbI-84" vertex="1">
          <mxGeometry y="120" width="140" height="30" as="geometry" />
        </mxCell>
        <mxCell id="yB3i1mMbMBHToOypcdbI-89" value="no_hp" style="text;strokeColor=none;fillColor=none;align=left;verticalAlign=middle;spacingLeft=4;spacingRight=4;overflow=hidden;points=[[0,0.5],[1,0.5]];portConstraint=eastwest;rotatable=0;whiteSpace=wrap;html=1;" parent="yB3i1mMbMBHToOypcdbI-84" vertex="1">
          <mxGeometry y="150" width="140" height="30" as="geometry" />
        </mxCell>
        <mxCell id="yB3i1mMbMBHToOypcdbI-95" style="edgeStyle=none;curved=1;rounded=0;orthogonalLoop=1;jettySize=auto;html=1;fontSize=12;startSize=8;endSize=8;" parent="1" source="yB3i1mMbMBHToOypcdbI-80" edge="1">
          <mxGeometry relative="1" as="geometry">
            <mxPoint x="201" y="5640" as="targetPoint" />
            <Array as="points">
              <mxPoint x="200" y="5640" />
            </Array>
          </mxGeometry>
        </mxCell>
        <mxCell id="yB3i1mMbMBHToOypcdbI-96" style="edgeStyle=none;curved=1;rounded=0;orthogonalLoop=1;jettySize=auto;html=1;fontSize=12;startSize=8;endSize=8;" parent="1" source="yB3i1mMbMBHToOypcdbI-76" target="yB3i1mMbMBHToOypcdbI-64" edge="1">
          <mxGeometry relative="1" as="geometry" />
        </mxCell>
        <mxCell id="yB3i1mMbMBHToOypcdbI-97" value="Pemilihan Buku" style="text;html=1;align=center;verticalAlign=middle;resizable=0;points=[];autosize=1;strokeColor=none;fillColor=none;" parent="1" vertex="1">
          <mxGeometry x="-155" y="5460" width="110" height="30" as="geometry" />
        </mxCell>
        <mxCell id="KM6ziB7WWI_Tr3VbZF2D-5" value="Memasukkan Baju ke mesin Cuci" style="edgeStyle=none;curved=1;rounded=0;orthogonalLoop=1;jettySize=auto;html=1;fontSize=12;startSize=8;endSize=8;" edge="1" parent="1" source="KM6ziB7WWI_Tr3VbZF2D-1" target="KM6ziB7WWI_Tr3VbZF2D-4">
          <mxGeometry relative="1" as="geometry" />
        </mxCell>
        <mxCell id="KM6ziB7WWI_Tr3VbZF2D-1" value="Jumlah Baju Kotor&amp;nbsp;" style="rounded=0;whiteSpace=wrap;html=1;" vertex="1" parent="1">
          <mxGeometry x="-820" y="-480" width="160" height="80" as="geometry" />
        </mxCell>
        <mxCell id="KM6ziB7WWI_Tr3VbZF2D-3" value="user memasukkan baju yang ingin dicuci" style="edgeStyle=none;curved=1;rounded=0;orthogonalLoop=1;jettySize=auto;html=1;fontSize=12;startSize=8;endSize=8;" edge="1" parent="1" source="KM6ziB7WWI_Tr3VbZF2D-2" target="KM6ziB7WWI_Tr3VbZF2D-1">
          <mxGeometry relative="1" as="geometry" />
        </mxCell>
        <mxCell id="KM6ziB7WWI_Tr3VbZF2D-2" value="&lt;font style=&quot;font-size: 22px;&quot;&gt;Start&lt;/font&gt;" style="ellipse;whiteSpace=wrap;html=1;" vertex="1" parent="1">
          <mxGeometry x="-800" y="-680" width="120" height="80" as="geometry" />
        </mxCell>
        <mxCell id="KM6ziB7WWI_Tr3VbZF2D-7" value="Yes" style="edgeStyle=none;curved=1;rounded=0;orthogonalLoop=1;jettySize=auto;html=1;entryX=0;entryY=0.5;entryDx=0;entryDy=0;fontSize=12;startSize=8;endSize=8;" edge="1" parent="1" source="KM6ziB7WWI_Tr3VbZF2D-4" target="KM6ziB7WWI_Tr3VbZF2D-6">
          <mxGeometry relative="1" as="geometry" />
        </mxCell>
        <mxCell id="KM6ziB7WWI_Tr3VbZF2D-4" value="Baju di mesin cuci&amp;nbsp;&lt;div&gt;more than 3 ?&lt;/div&gt;" style="rhombus;whiteSpace=wrap;html=1;" vertex="1" parent="1">
          <mxGeometry x="-800" y="-280" width="120" height="120" as="geometry" />
        </mxCell>
        <mxCell id="KM6ziB7WWI_Tr3VbZF2D-16" style="edgeStyle=none;curved=1;rounded=0;orthogonalLoop=1;jettySize=auto;html=1;entryX=0;entryY=0.5;entryDx=0;entryDy=0;fontSize=12;startSize=8;endSize=8;" edge="1" parent="1" source="KM6ziB7WWI_Tr3VbZF2D-6" target="KM6ziB7WWI_Tr3VbZF2D-15">
          <mxGeometry relative="1" as="geometry" />
        </mxCell>
        <mxCell id="KM6ziB7WWI_Tr3VbZF2D-6" value="Ambil 3 baju untuk di cuci" style="rounded=0;whiteSpace=wrap;html=1;" vertex="1" parent="1">
          <mxGeometry x="-550" y="-260" width="160" height="80" as="geometry" />
        </mxCell>
        <mxCell id="KM6ziB7WWI_Tr3VbZF2D-8" value="&lt;font style=&quot;font-size: 22px;&quot;&gt;End&lt;/font&gt;" style="ellipse;whiteSpace=wrap;html=1;" vertex="1" parent="1">
          <mxGeometry x="-790" y="144" width="120" height="80" as="geometry" />
        </mxCell>
        <mxCell id="KM6ziB7WWI_Tr3VbZF2D-14" style="edgeStyle=none;curved=1;rounded=0;orthogonalLoop=1;jettySize=auto;html=1;entryX=0.5;entryY=0;entryDx=0;entryDy=0;fontSize=12;startSize=8;endSize=8;" edge="1" parent="1" source="KM6ziB7WWI_Tr3VbZF2D-9" target="KM6ziB7WWI_Tr3VbZF2D-8">
          <mxGeometry relative="1" as="geometry" />
        </mxCell>
        <mxCell id="KM6ziB7WWI_Tr3VbZF2D-9" value="Baju Kotor dicuci" style="rounded=0;whiteSpace=wrap;html=1;" vertex="1" parent="1">
          <mxGeometry x="-810" y="-30" width="160" height="80" as="geometry" />
        </mxCell>
        <mxCell id="KM6ziB7WWI_Tr3VbZF2D-10" value="No" style="edgeStyle=none;curved=1;rounded=0;orthogonalLoop=1;jettySize=auto;html=1;entryX=0.421;entryY=0.014;entryDx=0;entryDy=0;entryPerimeter=0;fontSize=12;startSize=8;endSize=8;" edge="1" parent="1" source="KM6ziB7WWI_Tr3VbZF2D-4" target="KM6ziB7WWI_Tr3VbZF2D-9">
          <mxGeometry relative="1" as="geometry" />
        </mxCell>
        <mxCell id="KM6ziB7WWI_Tr3VbZF2D-17" value="No" style="edgeStyle=orthogonalEdgeStyle;rounded=0;orthogonalLoop=1;jettySize=auto;html=1;entryX=1;entryY=0.5;entryDx=0;entryDy=0;fontSize=12;startSize=8;endSize=8;" edge="1" parent="1" source="KM6ziB7WWI_Tr3VbZF2D-15" target="KM6ziB7WWI_Tr3VbZF2D-9">
          <mxGeometry relative="1" as="geometry">
            <Array as="points">
              <mxPoint x="-220" y="10" />
            </Array>
          </mxGeometry>
        </mxCell>
        <mxCell id="KM6ziB7WWI_Tr3VbZF2D-18" style="edgeStyle=orthogonalEdgeStyle;rounded=0;orthogonalLoop=1;jettySize=auto;html=1;entryX=1;entryY=0.5;entryDx=0;entryDy=0;fontSize=12;startSize=8;endSize=8;" edge="1" parent="1" source="KM6ziB7WWI_Tr3VbZF2D-15" target="KM6ziB7WWI_Tr3VbZF2D-1">
          <mxGeometry relative="1" as="geometry">
            <Array as="points">
              <mxPoint x="-220" y="-440" />
            </Array>
          </mxGeometry>
        </mxCell>
        <mxCell id="KM6ziB7WWI_Tr3VbZF2D-19" value="Yes" style="edgeLabel;html=1;align=center;verticalAlign=middle;resizable=0;points=[];fontSize=12;" vertex="1" connectable="0" parent="KM6ziB7WWI_Tr3VbZF2D-18">
          <mxGeometry x="-0.0247" y="-2" relative="1" as="geometry">
            <mxPoint as="offset" />
          </mxGeometry>
        </mxCell>
        <mxCell id="KM6ziB7WWI_Tr3VbZF2D-15" value="Apakah Baju tersisa&lt;div&gt;masih ada ?&lt;/div&gt;" style="rhombus;whiteSpace=wrap;html=1;" vertex="1" parent="1">
          <mxGeometry x="-280" y="-280" width="120" height="120" as="geometry" />
        </mxCell>
      </root>
    </mxGraphModel>
  </diagram>
  <diagram id="Tnoh3sKrel_dWKkiZIrR" name="Page-2">
    <mxGraphModel grid="0" page="0" gridSize="10" guides="1" tooltips="1" connect="1" arrows="1" fold="1" pageScale="1" pageWidth="850" pageHeight="1100" math="0" shadow="0">
      <root>
        <mxCell id="0" />
        <mxCell id="1" parent="0" />
      </root>
    </mxGraphModel>
  </diagram>
</mxfile>
